<svg xmlns="http://www.w3.org/2000/svg" viewBox="0 0 750 420.08"><defs><style>.cls-1{fill:#e6e6e6;}.cls-2{fill:#f0f0f0;}.cls-11,.cls-21,.cls-22,.cls-26,.cls-27,.cls-3{fill:#fff;}.cls-4{fill:#ebebeb;}.cls-5{fill:#e0e0e0;}.cls-6{fill:#f5f5f5;}.cls-7{fill:#407bff;}.cls-8{fill:#263238;}.cls-13,.cls-14,.cls-19,.cls-9{opacity:0.2;}.cls-10,.cls-14,.cls-16,.cls-29{fill:none;}.cls-10,.cls-11{stroke:#407bff;}.cls-10,.cls-11,.cls-14,.cls-16,.cls-29{stroke-linecap:round;stroke-linejoin:round;}.cls-10,.cls-11,.cls-14,.cls-16{stroke-width:0.5px;}.cls-12{fill:#eec1bb;}.cls-13,.cls-19,.cls-22{isolation:isolate;}.cls-14{stroke:#000;}.cls-15{fill:#d4827d;}.cls-16,.cls-29{stroke:#263238;}.cls-17,.cls-18,.cls-27{opacity:0.3;}.cls-20{fill:#dc5753;}.cls-21,.cls-32{opacity:0.5;}.cls-22{opacity:0.8;}.cls-23,.cls-24{opacity:0.4;}.cls-25{fill:#e9b376;}.cls-26{opacity:0.7;}.cls-28{fill:#d58745;}.cls-29{stroke-width:0.75px;}.cls-30{fill:#b97964;}.cls-31{fill:#a24e3f;}</style></defs><g id="Background_complete" data-name="Background complete"><rect class="cls-1" x="567.81" y="17.86" width="56.75" height="106.99"/><rect class="cls-2" x="555.11" y="17.86" width="66.66" height="106.99"/><rect class="cls-3" x="565.24" y="27.37" width="46.37" height="87.98"/><rect class="cls-4" x="579.99" y="53.61" width="18.03" height="34.2"/><rect class="cls-1" x="123.76" y="17.86" width="56.75" height="106.99"/><rect class="cls-2" x="111.06" y="17.86" width="66.66" height="106.99"/><rect class="cls-3" x="121.2" y="27.37" width="46.37" height="87.98"/><rect class="cls-4" x="135.94" y="53.61" width="18.03" height="34.2"/><path class="cls-5" d="M673.73,322.34H493a5.87,5.87,0,0,1-5.86-5.86V53.2A5.87,5.87,0,0,1,493,47.34H673.73a5.87,5.87,0,0,1,5.87,5.86V316.48A5.87,5.87,0,0,1,673.73,322.34ZM493,47.59a5.61,5.61,0,0,0-5.61,5.61V316.48a5.61,5.61,0,0,0,5.61,5.61H673.73a5.62,5.62,0,0,0,5.62-5.61V53.2a5.62,5.62,0,0,0-5.62-5.61Z" transform="translate(0 -47.34)"/><path class="cls-5" d="M465.31,322.34H284.56a5.87,5.87,0,0,1-5.86-5.86V53.2a5.87,5.87,0,0,1,5.86-5.86H465.31a5.87,5.87,0,0,1,5.86,5.86V316.48A5.87,5.87,0,0,1,465.31,322.34ZM284.56,47.59A5.62,5.62,0,0,0,279,53.2V316.48a5.62,5.62,0,0,0,5.61,5.61H465.31a5.62,5.62,0,0,0,5.61-5.61V53.2a5.62,5.62,0,0,0-5.61-5.61Z" transform="translate(0 -47.34)"/><path class="cls-5" d="M257,322.34H76.27a5.87,5.87,0,0,1-5.87-5.86V53.2a5.87,5.87,0,0,1,5.87-5.86H257a5.87,5.87,0,0,1,5.86,5.86V316.48A5.87,5.87,0,0,1,257,322.34ZM76.27,47.59a5.62,5.62,0,0,0-5.62,5.61V316.48a5.62,5.62,0,0,0,5.62,5.61H257a5.61,5.61,0,0,0,5.61-5.61V53.2A5.61,5.61,0,0,0,257,47.59Z" transform="translate(0 -47.34)"/><rect class="cls-5" y="336.07" width="750" height="0.12"/><rect class="cls-4" x="653.63" y="365.44" width="55.73" height="0.42"/><rect class="cls-4" x="495.04" y="370.01" width="14.63" height="0.42"/><rect class="cls-4" x="40.64" y="352.65" width="72.67" height="0.42"/><rect class="cls-4" x="128.3" y="352.65" width="10.66" height="0.42"/><rect class="cls-4" x="173.59" y="359.75" width="157.61" height="0.42"/><path class="cls-4" d="M238.48,111.24a35.56,35.56,0,0,0-5.09,12.33l-6.89.65v13.34l6.89.65a35.56,35.56,0,0,0,5.09,12.33l-4.4,5.32,9.43,9.43,5.32-4.4A35.64,35.64,0,0,0,261.16,166l.65,6.89h13.34l.65-6.89a35.69,35.69,0,0,0,12.34-5.09l5.31,4.4,9.43-9.43-4.4-5.32a35.37,35.37,0,0,0,5.09-12.33l6.89-.65V124.22l-6.89-.65a35.37,35.37,0,0,0-5.09-12.33l4.4-5.32-9.43-9.43-5.31,4.4A35.49,35.49,0,0,0,275.8,95.8l-.65-6.89H261.81l-.65,6.89a35.64,35.64,0,0,0-12.33,5.09l-5.32-4.4-9.43,9.43Zm42.77,6.88a18.06,18.06,0,1,1-25.54,0A18.06,18.06,0,0,1,281.25,118.12Z" transform="translate(0 -47.34)"/><path class="cls-4" d="M264.51,272.15a17.74,17.74,0,0,0-2.54,6.17l-3.45.32v6.67l3.45.32a17.66,17.66,0,0,0,2.54,6.17l-2.2,2.65,4.72,4.72,2.65-2.2a17.74,17.74,0,0,0,6.17,2.54l.32,3.45h6.67l.32-3.45a17.74,17.74,0,0,0,6.17-2.54l2.65,2.2,4.72-4.72-2.2-2.65a17.85,17.85,0,0,0,2.54-6.17l3.45-.32v-6.67l-3.45-.32a17.93,17.93,0,0,0-2.54-6.17l2.2-2.65L292,264.78l-2.65,2.2a17.93,17.93,0,0,0-6.17-2.54l-.32-3.45h-6.67l-.32,3.45a17.93,17.93,0,0,0-6.17,2.54l-2.65-2.2-4.72,4.72Zm21.38,3.44a9,9,0,1,1-12.77,0A9,9,0,0,1,285.89,275.59Z" transform="translate(0 -47.34)"/><path class="cls-4" d="M74.46,202.56a28.15,28.15,0,0,0-4,9.74l-5.44.51v10.53l5.44.51a28.07,28.07,0,0,0,4,9.74L71,237.79l7.44,7.44,4.2-3.47a28.1,28.1,0,0,0,9.73,4l.52,5.44h10.53l.51-5.44a28.23,28.23,0,0,0,9.74-4l4.19,3.47,7.45-7.44-3.47-4.2a28,28,0,0,0,4-9.74l5.44-.51V212.81l-5.44-.51a28.2,28.2,0,0,0-4-9.74l3.47-4.19-7.45-7.45-4.19,3.47a28.23,28.23,0,0,0-9.74-4l-.51-5.43H92.88l-.52,5.43a28.1,28.1,0,0,0-9.73,4l-4.2-3.47L71,198.37ZM108.22,208a14.26,14.26,0,1,1-20.16,0A14.25,14.25,0,0,1,108.22,208Z" transform="translate(0 -47.34)"/><path class="cls-4" d="M646.89,181A13,13,0,0,0,645,185.6l-2.55.24v4.93L645,191a13,13,0,0,0,1.88,4.56l-1.63,2,3.49,3.49,2-1.63a13,13,0,0,0,4.56,1.88l.24,2.55h4.93l.24-2.55a13.13,13.13,0,0,0,4.56-1.88l2,1.63,3.48-3.49-1.62-2a13.24,13.24,0,0,0,1.88-4.56l2.54-.24v-4.93l-2.54-.24a13.24,13.24,0,0,0-1.88-4.56l1.62-2-3.48-3.48-2,1.62a13.13,13.13,0,0,0-4.56-1.88l-.24-2.55h-4.93l-.24,2.55a13,13,0,0,0-4.56,1.88l-2-1.63-3.49,3.49Zm15.8,2.55a6.67,6.67,0,1,1-9.43,0A6.66,6.66,0,0,1,662.69,183.59Z" transform="translate(0 -47.34)"/><path class="cls-6" d="M458.94,119.4a13,13,0,0,0-1.88,4.56l-2.55.24v4.93l2.55.24a13.08,13.08,0,0,0,1.88,4.55l-1.63,2,3.49,3.48,2-1.62a13.24,13.24,0,0,0,4.56,1.88l.24,2.54h4.93l.24-2.54a13.24,13.24,0,0,0,4.56-1.88l2,1.62,3.48-3.48-1.62-2a13.08,13.08,0,0,0,1.88-4.55l2.54-.24V124.2L483,124a13.24,13.24,0,0,0-1.88-4.56l1.62-2L479.25,114l-2,1.63a13,13,0,0,0-4.56-1.88l-.24-2.55h-4.93l-.24,2.55a13,13,0,0,0-4.56,1.88l-2-1.63-3.49,3.49Zm15.8,2.54a6.67,6.67,0,1,1-9.43,0A6.67,6.67,0,0,1,474.74,121.94Z" transform="translate(0 -47.34)"/><path class="cls-6" d="M129.08,260.86a13,13,0,0,0-1.88,4.56l-2.55.24v4.93l2.55.24a13,13,0,0,0,1.88,4.56l-1.63,2,3.49,3.49,2-1.63a13,13,0,0,0,4.56,1.88l.24,2.55h4.92l.24-2.55a13,13,0,0,0,4.56-1.88l2,1.63,3.48-3.49-1.62-2a13.44,13.44,0,0,0,1.88-4.56l2.54-.24v-4.93l-2.54-.24a13.26,13.26,0,0,0-1.89-4.56l1.63-2-3.48-3.49-2,1.63a13,13,0,0,0-4.56-1.88l-.24-2.55H137.7l-.24,2.55A13,13,0,0,0,132.9,257l-2-1.63-3.49,3.49Zm15.8,2.55a6.67,6.67,0,1,1-9.44,0A6.68,6.68,0,0,1,144.88,263.41Z" transform="translate(0 -47.34)"/><path class="cls-4" d="M575,200.92a22.7,22.7,0,0,0-3.23,7.84l-4.37.41v8.47l4.37.41a22.57,22.57,0,0,0,3.23,7.83l-2.79,3.38,6,6,3.38-2.8a22.41,22.41,0,0,0,7.83,3.24l.41,4.37h8.47l.41-4.37a22.41,22.41,0,0,0,7.83-3.24l3.38,2.8,6-6-2.79-3.38a22.57,22.57,0,0,0,3.23-7.83l4.37-.41v-8.47l-4.37-.41a22.53,22.53,0,0,0-3.24-7.84l2.8-3.37-6-6-3.38,2.79a22.57,22.57,0,0,0-7.83-3.23l-.41-4.37h-8.47l-.41,4.37a22.57,22.57,0,0,0-7.83,3.23l-3.38-2.79-6,6Zm27.16,4.37a11.47,11.47,0,1,1-16.21,0A11.47,11.47,0,0,1,602.15,205.29Z" transform="translate(0 -47.34)"/><path class="cls-4" d="M406.64,248.42a22.93,22.93,0,0,0-3.26,7.89l-4.4.42v8.53l4.4.42a23,23,0,0,0,3.26,7.89l-2.81,3.4,6,6,3.4-2.82a22.67,22.67,0,0,0,7.9,3.26l.41,4.41h8.54l.41-4.41a22.67,22.67,0,0,0,7.9-3.26l3.4,2.82,6-6-2.82-3.4a22.93,22.93,0,0,0,3.26-7.89l4.4-.42v-8.53l-4.41-.42a22.93,22.93,0,0,0-3.26-7.89l2.81-3.4-6-6-3.4,2.82a22.67,22.67,0,0,0-7.9-3.26l-.41-4.41h-8.54l-.41,4.41a22.84,22.84,0,0,0-7.9,3.25l-3.4-2.81-6,6Zm27.37,4.4a11.56,11.56,0,1,1-16.34,0A11.56,11.56,0,0,1,434,252.82Z" transform="translate(0 -47.34)"/><path class="cls-4" d="M431.66,328.88a38.39,38.39,0,0,0-5.47,13.25l-7.39.7v14.32l7.39.7a38.47,38.47,0,0,0,5.47,13.25l-4.72,5.7,10.13,10.13,5.7-4.72A38.26,38.26,0,0,0,456,387.67l.7,7.4H471l.7-7.39A38.47,38.47,0,0,0,485,382.21l5.7,4.72,10.13-10.13-4.72-5.7a38.47,38.47,0,0,0,5.47-13.25l7.39-.7V342.83l-7.39-.7a38.47,38.47,0,0,0-5.47-13.25l4.72-5.7-10.13-10.13-5.7,4.72a38.47,38.47,0,0,0-13.25-5.47l-.7-7.4H456.72l-.7,7.39a38.47,38.47,0,0,0-13.25,5.47l-5.7-4.73-10.13,10.13Zm45.93,7.4a19.39,19.39,0,1,1-27.42,0A19.37,19.37,0,0,1,477.59,336.28Z" transform="translate(0 -47.34)"/></g><g id="Shadow"><path class="cls-6" d="M700.51,448.39c0,3.39-141.26,6.14-315.51,6.14s-315.51-2.75-315.51-6.14,141.26-6.13,315.51-6.13S700.51,445,700.51,448.39Z" transform="translate(0 -47.34)"/></g><g id="Plant"><path class="cls-7" d="M117.08,274.16c-18.24,21.33-23.56,52.9-13.33,79,11.36-10.14,19.37-25.6,19.87-39.13S120.59,287.23,117.08,274.16Z" transform="translate(0 -47.34)"/><path class="cls-7" d="M113.9,355.66A52.34,52.34,0,0,0,105.61,388c9.86-3.43,18.55-14.56,23.76-23.61s8.12-19.2,10.77-29.3A52.38,52.38,0,0,0,113.9,355.66Z" transform="translate(0 -47.34)"/><path class="cls-8" d="M111.62,311.41a301.75,301.75,0,0,0-11,81q0,11.67.93,23.3c0,.48.78.48.75,0A300.7,300.7,0,0,1,107,334.06q2.23-11.32,5.34-22.45a.38.38,0,0,0-.73-.2Z" transform="translate(0 -47.34)"/><path class="cls-8" d="M101.72,396.89a249.7,249.7,0,0,1,28.7-50.1c.28-.4-.37-.77-.65-.38a256.32,256.32,0,0,0-23.52,38.68q-2.79,5.73-5.25,11.6c-.19.45.54.64.72.2Z" transform="translate(0 -47.34)"/><path class="cls-7" d="M91.11,370.43A43.66,43.66,0,0,1,98,397.38c-8.22-2.86-15.47-12.15-19.81-19.69s-6.77-16-9-24.43A43.68,43.68,0,0,1,91.11,370.43Z" transform="translate(0 -47.34)"/><path class="cls-8" d="M101.5,403.62a203.36,203.36,0,0,0-23.57-40.93c-.29-.39-.94,0-.65.37a203,203,0,0,1,23.5,40.76c.18.43.91.24.72-.2Z" transform="translate(0 -47.34)"/><path class="cls-8" d="M101.79,408.47c11.6-11.94,23.44-23.63,35-35.57a.38.38,0,0,0-.53-.53c-11.6,11.94-23.44,23.63-35,35.57a.38.38,0,0,0,.53.53Z" transform="translate(0 -47.34)"/><path class="cls-7" d="M137.27,367.42a228.31,228.31,0,0,0-27.36,31.72h1.85a27.17,27.17,0,0,0,25.51-31.72Z" transform="translate(0 -47.34)"/><path class="cls-8" d="M89.63,344.27q6.48,10.61,12.21,21.64c.22.43.86,0,.64-.38q-5.72-11-12.2-21.63c-.26-.42-.9,0-.65.37Z" transform="translate(0 -47.34)"/><path class="cls-7" d="M79.21,308.59c-1.65,7.42-3.29,17.06-3.3,24.78s2.34,15.25,6.72,20.42,13.24,7.44,16.81,4.48Z" transform="translate(0 -47.34)"/><rect class="cls-8" x="78.98" y="364.57" width="43.96" height="8.15"/><polygon class="cls-8" points="115.83 401.75 88.53 401.75 83.56 370.85 119.74 370.85 115.83 401.75"/><polygon class="cls-9" points="83.89 372.87 119.49 372.87 119.05 376.37 84.45 376.37 83.89 372.87"/></g><g id="Speech_Bubble_2" data-name="Speech Bubble 2"><path class="cls-7" d="M635.18,235.83a23.16,23.16,0,1,1-3.17,38l-6.87,1.08,1.63-7.17c-.06-.11-.14-.21-.21-.32A23.17,23.17,0,0,1,635.18,235.83Z" transform="translate(0 -47.34)"/><path class="cls-10" d="M639.29,230.69a23,23,0,0,0-16.68,13.82" transform="translate(0 -47.34)"/><path class="cls-10" d="M621.45,247.76a8.35,8.35,0,0,0-.84,3.32" transform="translate(0 -47.34)"/><polygon class="cls-3" points="643.96 217.35 634.18 208.43 637.29 205.02 643.85 211 654.75 200.36 657.97 203.67 643.96 217.35"/></g><g id="Speech_Bubble_1" data-name="Speech Bubble 1"><path class="cls-3" d="M396.58,87.91A24.43,24.43,0,1,1,393.52,128l-7.24,1.19,1.67-7.57a4,4,0,0,1-.22-.34A24.43,24.43,0,0,1,396.58,87.91Z" transform="translate(0 -47.34)"/><path class="cls-11" d="M430,91.13a24.18,24.18,0,0,0-20.77-9.5" transform="translate(0 -47.34)"/><path class="cls-11" d="M405.62,82a8.59,8.59,0,0,0-3.53.73" transform="translate(0 -47.34)"/><rect class="cls-3" x="396.62" y="58.18" width="22.83" height="5.71"/><polygon class="cls-3" points="417.34 67 417.34 55.47 422.96 61.23 417.34 67"/></g><g id="Character_3" data-name="Character 3"><path class="cls-12" d="M546.08,233.05s-.61,10.47-5.72,28.82a292.58,292.58,0,0,1-11.66,33.35c-2.56,6.14-5.48,12.66-8.84,19.52-1.52,3.12-3.14,6.29-4.84,9.54-1.95,55.55-33.13,112-33.13,112-1.73.89-7.76-.08-7.72-1.84,4.62-7.32,13.7-78.5,19.56-112.27.36-4.59.89-9.45,1.54-14.59C497,294,499.52,279.15,502,266.11c3.88-20.54,7.56-36.64,7.56-36.64l10.27,1Z" transform="translate(0 -47.34)"/><path class="cls-8" d="M481.55,448.28H479.8l-.5-2.21-5.94,2.7H458.31s-2.39-2.4,4.77-4.31a5.4,5.4,0,0,0,1-.39c3.82-1.79,9.24-7.84,9.24-7.84h8.25a9.41,9.41,0,0,1,.67,1.2C483.16,439.21,484.71,443.07,481.55,448.28Z" transform="translate(0 -47.34)"/><path class="cls-12" d="M482.25,437.41h0c-1.07-1.22-6,4.11-9.66,5.93-3.24,1.61-6.88,2.33-8.5.69,3.82-1.79,10.62-10.19,10.62-10.19l5.83.58S481.88,436.62,482.25,437.41Z" transform="translate(0 -47.34)"/><path class="cls-12" d="M558.33,310h0q-1.23,9-3.2,19.18c11.14,37.15-11.76,109.67-11.76,109.67-3.88.77-7.31.27-9-1,4.32-21.85,1.22-78.66-2.14-112.6-.3-3.08-.68-6.47-1.08-10.08-.69-6.13-1.51-12.88-2.39-19.86-1.49-11.67-3.15-24-4.64-34.84-1.84-13.16-3.43-24.3-4.26-29.9-.33-2.45-.54-3.84-.54-3.84l32.15,3.48s8.18,9.16,9.45,37.79A233.77,233.77,0,0,1,558.33,310Z" transform="translate(0 -47.34)"/><path class="cls-8" d="M544.16,448.28h-1.79l-.5-2.21-5.93,2.7h-15s-2.39-2.4,4.78-4.31a5.68,5.68,0,0,0,1-.39c3.8-1.79,9.24-7.84,9.24-7.84h8.25a11.8,11.8,0,0,1,.67,1.2C545.77,439.21,547.28,443.07,544.16,448.28Z" transform="translate(0 -47.34)"/><path class="cls-12" d="M544.86,437.41h0c-1.09-1.22-6,4.11-9.67,5.93-3.24,1.61-6.89,2.33-8.49.69,3.8-1.79,9.81-9.61,9.81-9.61h6.63S544.47,436.62,544.86,437.41Z" transform="translate(0 -47.34)"/><path class="cls-8" d="M566.77,152.32c-1.65-1.42-4.31-.88-6.58-1.14a10.46,10.46,0,0,1-7.71-5.72c-1.48-2.83-1.91-6-2.44-9.08s-1.21-6.25-3.11-8.87-6.45-5.86-9.76-3.88l-4.43,6.87a208.53,208.53,0,0,1,6.48,24.5c.74,3.69,1.47,7.6,4.15,10.47s6.78,4.19,10.86,4.46a13.91,13.91,0,0,0,6.09-.77,6.28,6.28,0,0,0,3.92-4.07,4.06,4.06,0,0,0-2.51-4.63,12.93,12.93,0,0,0,5-3.09C568,155.9,568.25,153.6,566.77,152.32Z" transform="translate(0 -47.34)"/><path class="cls-8" d="M503.26,118.13a16,16,0,0,0-4.9,14.73c1.7,5.29,4.28,8.78,6.7,13.77l8.58-34.3C510.41,113.61,508.77,113.19,503.26,118.13Z" transform="translate(0 -47.34)"/><path class="cls-8" d="M518.55,112.13c9.89.2,19.83,8.48,20.61,16.5s-7.12,18.39-8.6,19l-4.69,1.73s5.17-11.95,3-15.15-3.7-3.23-3.7-3.23Z" transform="translate(0 -47.34)"/><path class="cls-8" d="M510.15,114c5.15-3.64,11.23-1.55,14.83,0A16.4,16.4,0,0,1,532.86,125c.79,4.31,1.74,9.54-.46,12.27a7.09,7.09,0,0,1-5,2.7l-24.93-15.8A25.34,25.34,0,0,1,510.15,114Z" transform="translate(0 -47.34)"/><path class="cls-12" d="M520.2,172.48c1.95,1.4,3.35.56,5.38-.74,12.17-7.06,7.17-12.65,7.17-12.65-3-2.45-3.74-5.9-3.8-11.35a2.54,2.54,0,0,0-.07-.47,3.45,3.45,0,0,0-1-1.84,3.55,3.55,0,0,0-5,0h0l-5.53,2.73h0v.26c.51,2.9,1,5.13,1.3,6.9a6.12,6.12,0,0,0,.1.64h0a3.63,3.63,0,0,0,.1.66c.3,2.45-3.15,6.75-4.67,7.89C513.25,165.25,513.6,167.79,520.2,172.48Z" transform="translate(0 -47.34)"/><path class="cls-13" d="M517.33,148.05h0a1.22,1.22,0,0,1,0,.27c.51,2.89,1,5.13,1.3,6.9a4.49,4.49,0,0,1,.1.64h0a5.32,5.32,0,0,1,0,.69h0a22.88,22.88,0,0,0,10-9.33h0a3.63,3.63,0,0,0-1-1.85,3.56,3.56,0,0,0-5-.08Z" transform="translate(0 -47.34)"/><path class="cls-12" d="M529.7,126.77c1.59,10,2.49,14.21-1.27,20.49-5.65,9.44-18,9.45-22.53.16-4-8.38-6-23.32,2.58-29.61S528.1,116.75,529.7,126.77Z" transform="translate(0 -47.34)"/><path class="cls-12" d="M535.67,134.51a8.2,8.2,0,0,1-3.78,5c-2.43,1.36-4.91-2.47-4.73-5.33a5.41,5.41,0,0,1,5-5C534.78,129,536.38,131.84,535.67,134.51Z" transform="translate(0 -47.34)"/><path class="cls-14" d="M530,135.48a3.78,3.78,0,0,1,.54-2.78,3.74,3.74,0,0,1,2.35-1.58" transform="translate(0 -47.34)"/><path class="cls-8" d="M517.48,133.44c.24,1.05-.09,2.06-.74,2.25s-1.36-.51-1.59-1.57.1-2.06.74-2.25S517.25,132.38,517.48,133.44Z" transform="translate(0 -47.34)"/><path class="cls-8" d="M507.75,136c.23,1-.11,2-.75,2.2s-1.35-.49-1.57-1.52.11-2,.75-2.19S507.53,135,507.75,136Z" transform="translate(0 -47.34)"/><path class="cls-8" d="M518.56,129.25a.5.5,0,0,1-.38,0,3.69,3.69,0,0,0-3.5,0A.47.47,0,0,1,514,129a.56.56,0,0,1,.2-.71,4.62,4.62,0,0,1,4.42,0,.52.52,0,0,1,.19.69A.57.57,0,0,1,518.56,129.25Z" transform="translate(0 -47.34)"/><path class="cls-8" d="M503.14,132a.39.39,0,0,1-.28-.15.55.55,0,0,1,.07-.7,4.24,4.24,0,0,1,3.93-1.35.46.46,0,0,1,.27.6.47.47,0,0,1-.55.36,3.38,3.38,0,0,0-3.1,1.11A.46.46,0,0,1,503.14,132Z" transform="translate(0 -47.34)"/><path class="cls-15" d="M510.27,134.84a34.4,34.4,0,0,1-1.66,6.88.79.79,0,0,0,.67,1.07,5,5,0,0,0,2.65-.67Z" transform="translate(0 -47.34)"/><path class="cls-8" d="M516.28,131.81l-2.41.08S515.56,133.24,516.28,131.81Z" transform="translate(0 -47.34)"/><path class="cls-8" d="M506.42,134.49l-2.41.08S505.71,135.92,506.42,134.49Z" transform="translate(0 -47.34)"/><path class="cls-8" d="M526.69,129.84s-6.89-5.48-8.08-11c0,0-21.22-.81-16.13,16.45,0,0-7.18-14.42,9-19.94S535.12,131,529,139.91C528.9,139.83,531,133.27,526.69,129.84Z" transform="translate(0 -47.34)"/><path class="cls-8" d="M504.33,118.89a14.55,14.55,0,0,0-2.76,8.61c.4,2.17,3.64,3.2,3.64,3.2l2.75-5.39.75,4.16a13.38,13.38,0,0,0,9.84-10.38l-4.37-5.29S506,116.84,504.33,118.89Z" transform="translate(0 -47.34)"/><path class="cls-16" d="M516.07,143.91a2.16,2.16,0,0,0,2.49-2.43" transform="translate(0 -47.34)"/><path class="cls-13" d="M535.84,140.66s7.48-9.27,1.62-17.18c0,0,4.32,3,3.5,8.09C540.31,135.6,538.56,138.86,535.84,140.66Z" transform="translate(0 -47.34)"/><path class="cls-13" d="M558.33,310h0a99.87,99.87,0,0,1-27.23,5.13c-.69-6.13-1.51-12.88-2.39-19.86-2.55,6.14-5.48,12.66-8.84,19.52a67.2,67.2,0,0,1-24.59-7.13C497,294,499.53,279.16,502,266.13A40.27,40.27,0,0,1,513,261.71a48.66,48.66,0,0,1,11.15-1.35,85.68,85.68,0,0,1,16.3,1.5,102.78,102.78,0,0,1,20.37,6.05A233.71,233.71,0,0,1,558.33,310Z" transform="translate(0 -47.34)"/><path class="cls-8" d="M509,226.64h42.69l1.16,5.5s15.68,21.7,7.73,75.82c0,0-34.35,4-66.7-3,0,0,7.27-55.6,14.85-73.75Z" transform="translate(0 -47.34)"/><path class="cls-7" d="M549.48,209.85l3,22.7-46.8-1.88c-.12-4.88,4.23-17.82,3.72-21.36-1.42-4.37-8.61-11-10.52-16.25-2-7.34,2.17-27.5,3.55-28.14,1.66-.78,3.74-.71,5-1.27,5-1.17,16.27-5.21,21.33-5.84,1-.09,1.95-.26,2.92-.38,0,0,19.15-.92,20,6.87A171.29,171.29,0,0,0,549.48,209.85Z" transform="translate(0 -47.34)"/><polygon class="cls-13" points="549.11 157.7 548.73 151.48 541.64 132.16 547.2 154.91 529.59 161.07 549.11 157.7"/><path class="cls-13" d="M528.73,225.3c.63-.08,6.18-6.12,6.18-6.12l15.9.6L550,214c.47-.37-18.57.5-18.57.5l-2.74,5.93Z" transform="translate(0 -47.34)"/><path class="cls-7" d="M544.51,159.24c.82.11,4.14-1.78,10.15,5.94s12.75,37.13,13.13,41.43c.48,5.45-3.15,8.13-6.78,8.73-10.86,1.8-30.92,2.16-30.92,2.16v-9.24l20-4.53s-11.36-27.34-9.56-34.39S544.51,159.24,544.51,159.24Z" transform="translate(0 -47.34)"/><path class="cls-12" d="M535.51,157.41a20.36,20.36,0,0,1-15.06,16c-2.71.65-5.75-.85-7.89-2.63a11.81,11.81,0,0,1-4.08-7.14C517.9,159.94,526.43,156.75,535.51,157.41Z" transform="translate(0 -47.34)"/><path class="cls-13" d="M550.1,203.73s3.25-.19,4.63,1.59c0,0-.83-3.4-5.08-2.69Z" transform="translate(0 -47.34)"/><path class="cls-7" d="M523.62,263V160H420.73v41.17c1.87.71,8,1.18,9.81.48,3.25-1.21,1.13-4.95,4.27-6.42,4.62-2.18,10.39.89,12.81,5.39,1.88,3.49,2.23,5.32,2.06,8.34.17,3-.18,4.84-2.06,8.34-2.42,4.5-8.19,7.57-12.81,5.39-3.14-1.48-.59-5.13-3.84-6.34-1.85-.69-8.37-.31-10.24.4V263h46a7.28,7.28,0,0,1-.41,3c-1.21,3.25-4.66,5.18-6.14,8.32-2.18,4.62.89,10.39,5.39,12.81,3.49,1.88,5.32,2.24,8.34,2.06,3,.18,4.85-.18,8.34-2.06,4.5-2.42,7.57-8.19,5.39-12.81-1.47-3.14-4.93-5.07-6.14-8.32a7.28,7.28,0,0,1-.41-3Z" transform="translate(0 -47.34)"/><path class="cls-7" d="M528.73,263V160H425.84v41.17a8.18,8.18,0,0,0,5.76.19c3.25-1.21,5.18-4.66,8.31-6.13,4.63-2.18,10.39.89,12.82,5.39,1.88,3.49,2.23,5.32,2.06,8.34.17,3-.18,4.84-2.06,8.34-2.43,4.5-8.19,7.57-12.82,5.39-3.13-1.48-5.06-4.93-8.31-6.14a8.18,8.18,0,0,0-5.76.2V263h46a7.28,7.28,0,0,1-.41,3c-1.21,3.25-4.67,5.18-6.14,8.32-2.18,4.62.89,10.39,5.39,12.81,3.49,1.88,5.32,2.24,8.34,2.06,3,.18,4.84-.18,8.34-2.06,4.5-2.42,7.57-8.19,5.39-12.81-1.48-3.14-4.93-5.07-6.14-8.32a7.28,7.28,0,0,1-.41-3Z" transform="translate(0 -47.34)"/><g class="cls-17"><path class="cls-3" d="M528.73,263V160H425.84v41.17a8.18,8.18,0,0,0,5.76.19c3.25-1.21,5.18-4.66,8.31-6.13,4.63-2.18,10.39.89,12.82,5.39,1.88,3.49,2.23,5.32,2.06,8.34.17,3-.18,4.84-2.06,8.34-2.43,4.5-8.19,7.57-12.82,5.39-3.13-1.48-5.06-4.93-8.31-6.14a8.18,8.18,0,0,0-5.76.2V263h46a7.28,7.28,0,0,1-.41,3c-1.21,3.25-4.67,5.18-6.14,8.32-2.18,4.62.89,10.39,5.39,12.81,3.49,1.88,5.32,2.24,8.34,2.06,3,.18,4.84-.18,8.34-2.06,4.5-2.42,7.57-8.19,5.39-12.81-1.48-3.14-4.93-5.07-6.14-8.32a7.28,7.28,0,0,1-.41-3Z" transform="translate(0 -47.34)"/></g><path class="cls-12" d="M528.73,210.07s-6.9,1.72-7.66,3.35,1.8,1.5,1.8,1.5-2.81.31-2.84,1.51c0,1.45,2.65,1.31,2.65,1.31s-2.28.35-2.24,1.42,3.08,1.17,3.08,1.17-1.55.55-1.1,1.28,6.89,1,8.78-.23,1.91-9.47,1.54-11.28-1.74-2.77-4-5.51v5.48Z" transform="translate(0 -47.34)"/><path class="cls-9" d="M522.87,215.05h0l4.86-.77a.14.14,0,0,0,.1-.16.13.13,0,0,0-.14-.11l-4.86.77a.13.13,0,0,0-.1.16C522.76,215,522.81,215.06,522.87,215.05Z" transform="translate(0 -47.34)"/><path class="cls-9" d="M522.82,217.87h0l4.72-.37a.13.13,0,0,0,.11-.15.12.12,0,0,0-.13-.12l-4.72.37a.14.14,0,0,0,0,.27Z" transform="translate(0 -47.34)"/><path class="cls-9" d="M523.69,220.46l3.52-.17a.14.14,0,0,0,.12-.14c0-.08-.06-.14-.13-.13l-3.52.17a.12.12,0,0,0-.11.14C523.57,220.41,523.63,220.47,523.69,220.46Z" transform="translate(0 -47.34)"/><path class="cls-12" d="M449.75,207.34s7.4,2.07,8.16,3.69-1.8,1.5-1.8,1.5,2.8.31,2.83,1.52c0,1.45-2.64,1.31-2.64,1.31s2.28.34,2.23,1.42-3.08,1.17-3.08,1.17,1.56.55,1.11,1.28-6.89,1-8.79-.24-1.9-9.47-1.53-11.27.52-1.51,2.79-4.25l.41,1.53a7,7,0,0,1,.22,1.28Z" transform="translate(0 -47.34)"/><path class="cls-9" d="M456.1,212.67h0l-4.86-.77a.14.14,0,0,1-.1-.15.13.13,0,0,1,.14-.12l4.86.78a.14.14,0,0,1,.1.15A.14.14,0,0,1,456.1,212.67Z" transform="translate(0 -47.34)"/><path class="cls-9" d="M456.15,215.48h0l-4.73-.37c-.06,0-.11-.07-.11-.14a.14.14,0,0,1,.13-.13l4.73.37a.13.13,0,0,1,.11.15A.12.12,0,0,1,456.15,215.48Z" transform="translate(0 -47.34)"/><path class="cls-9" d="M455.28,218.08l-3.52-.18c-.06,0-.11-.07-.11-.14a.13.13,0,0,1,.13-.13l3.52.18a.13.13,0,0,1,.11.14A.13.13,0,0,1,455.28,218.08Z" transform="translate(0 -47.34)"/></g><g id="Character_2" data-name="Character 2"><polygon class="cls-12" points="298.18 389.42 308.39 390.42 315.94 364.56 300.4 362.87 298.18 389.42"/><path class="cls-8" d="M309.87,433.25h-3.64a2.61,2.61,0,0,0-2.08,1.08c-2.1,2.87-3.68,1.79-6-.91-1.45-.17-1.84,1.5-2,1.95l-2.73,9.91a1.56,1.56,0,0,0,1.07,1.93,1.74,1.74,0,0,0,.45.06H323.9c4.59,0,5.55-4.63,3.65-5.06-8.51-1.88-14.53-4.39-17.16-6.86C309.9,434.91,310.4,434.59,309.87,433.25Z" transform="translate(0 -47.34)"/><path class="cls-7" d="M317.78,436.07a1.47,1.47,0,0,0,.62-1.19.67.67,0,0,0-.3-.65c-1.14-.81-5.7,1.33-6.21,1.58a.18.18,0,0,0-.12.12.21.21,0,0,0,.12.26,17.13,17.13,0,0,0,3.42.44A4.11,4.11,0,0,0,317.78,436.07Zm0-1.49a.27.27,0,0,1,.12.27,1.22,1.22,0,0,1-.45.87c-1,.78-3.54.44-4.88.19C314.5,435.08,317.19,434.14,317.82,434.58Z" transform="translate(0 -47.34)"/><path class="cls-7" d="M312.05,436.23c1.37-.57,4.23-2.82,4.08-4,0-.25-.2-.54-.82-.63-2.5-.28-3.57,4.2-3.57,4.39a.2.2,0,0,0,.06.22h.14Zm3.17-4.27c.47.05.47.22.47.27.13.73-1.95,2.6-3.44,3.38.31-1,1.22-3.66,2.81-3.66Z" transform="translate(0 -47.34)"/><path class="cls-10" d="M312.4,436.06a4.39,4.39,0,0,0-3.09,2" transform="translate(0 -47.34)"/><path class="cls-10" d="M314.67,437.77a4.43,4.43,0,0,0-3.1,2" transform="translate(0 -47.34)"/><path class="cls-10" d="M317.49,439.2a4.41,4.41,0,0,0-3.1,2" transform="translate(0 -47.34)"/><polygon class="cls-18" points="311.95 378.23 311.02 381.4 299.01 379.55 299.23 376.95 311.95 378.23"/><polygon class="cls-12" points="357.63 389.42 367.84 390.42 375.38 364.56 359.85 362.87 357.63 389.42"/><path class="cls-8" d="M369.32,433.25h-3.65a2.62,2.62,0,0,0-2.08,1.08c-2.1,2.87-3.68,1.79-6-.91-1.46-.17-1.85,1.5-2,1.95l-2.72,9.91a1.56,1.56,0,0,0,1.07,1.93,1.68,1.68,0,0,0,.45.06h28.89c4.59,0,5.54-4.63,3.65-5.06-8.51-1.88-14.54-4.39-17.17-6.86C369.35,434.91,369.85,434.59,369.32,433.25Z" transform="translate(0 -47.34)"/><path class="cls-7" d="M377.23,436.07a1.52,1.52,0,0,0,.62-1.19.69.69,0,0,0-.3-.65c-1.14-.81-5.7,1.33-6.21,1.58a.2.2,0,0,0-.13.12.21.21,0,0,0,.13.26,17,17,0,0,0,3.41.44A4.14,4.14,0,0,0,377.23,436.07Zm0-1.49a.25.25,0,0,1,.12.27,1.19,1.19,0,0,1-.45.87c-1,.78-3.53.44-4.88.19C373.94,435.08,376.63,434.14,377.26,434.58Z" transform="translate(0 -47.34)"/><path class="cls-7" d="M371.49,436.23c1.37-.57,4.24-2.82,4.08-4,0-.25-.2-.54-.82-.63-2.5-.28-3.57,4.2-3.57,4.39a.22.22,0,0,0,.06.22h.14Zm3.18-4.27c.46.05.46.22.46.27.13.73-1.95,2.6-3.44,3.38.31-1,1.23-3.66,2.81-3.66Z" transform="translate(0 -47.34)"/><path class="cls-10" d="M371.85,436.06a4.41,4.41,0,0,0-3.1,2" transform="translate(0 -47.34)"/><path class="cls-10" d="M374.11,437.77a4.41,4.41,0,0,0-3.09,2" transform="translate(0 -47.34)"/><path class="cls-10" d="M376.93,439.2a4.39,4.39,0,0,0-3.09,2" transform="translate(0 -47.34)"/><polygon class="cls-18" points="371.39 378.23 370.47 381.4 358.45 379.55 358.67 376.95 371.39 378.23"/><path class="cls-7" d="M379.45,241.92s8.47,37.38,12.5,69.94c1.23,9.92,1.46,23.19-.71,33l-16.31,81.1-20.53-2.06c3.23-35,7.72-78.11,9-96.47-4.52-21.51-14.14-47.54-23.6-73.44Z" transform="translate(0 -47.34)"/><g class="cls-19"><path d="M379.45,241.92s8.47,37.38,12.5,69.94c1.23,9.92,1.46,23.19-.71,33l-16.31,81.1-20.53-2.06c3.23-35,7.72-78.11,9-96.47-4.52-21.51-14.14-47.54-23.6-73.44Z" transform="translate(0 -47.34)"/></g><path class="cls-7" d="M312,333.92c.46-2,1.2-6.13,2.11-11.55l-.08,0c.66-7.16,1.9-40.4,4.17-61.61,1.74-13.5,5.19-22.64,8.67-27.12.17-.23.34-.43.49-.62.58-.72.93-1.12.93-1.12.66.17,1.31.32,2,.46l.73.16a104.17,104.17,0,0,0,46.13-1.32c2.26,5.58,3.94,17.48,5.59,29.81-2.56,2.82-13.83,6.47-26.75,8.89l-3.69,16.67c-1.94,10.33-4.42,20.47-6.54,29.59l-2.21,10c-.13.65-.27,1.3-.39,1.94-1.12,5.75-27.8,98.33-27.8,98.33l-17.38-1S305.71,361.31,312,333.92Z" transform="translate(0 -47.34)"/><path class="cls-13" d="M312,333.92c.46-2,1.2-6.13,2.11-11.55l-.08,0c.66-7.16,1.9-40.4,4.17-61.61,1.74-13.5,5.19-22.64,8.67-27.12.17-.23.34-.43.49-.62.58-.72.93-1.12.93-1.12.66.17,1.31.32,2,.46l.73.16a104.17,104.17,0,0,0,46.13-1.32c2.26,5.58,3.94,17.48,5.59,29.81-2.56,2.82-13.83,6.47-26.75,8.89l-3.69,16.67c-1.94,10.33-4.42,20.47-6.54,29.59l-2.21,10c-.13.65-.27,1.3-.39,1.94-1.12,5.75-27.8,98.33-27.8,98.33l-17.38-1S305.71,361.31,312,333.92Z" transform="translate(0 -47.34)"/><path class="cls-13" d="M352,288.09c-.07.34,8-28.84,8-28.84s6.76,26.05-3.53,42.35Z" transform="translate(0 -47.34)"/><path class="cls-12" d="M334.76,156.43s4.08,3.14,9.34,7.67a19.29,19.29,0,0,0,3.58,2.43c3.44,1.83,6.58,2.88,7.43,1.22a5.76,5.76,0,0,0,.45-1.18c.72-2.78.42-6.69-1.83-8.47-2.53-2-3.75-3.75-3.3-6.48a20.35,20.35,0,0,1,1.46-4.7l-2-2.33-10.43-10.53C339.72,141.09,340.26,152.61,334.76,156.43Z" transform="translate(0 -47.34)"/><path class="cls-9" d="M350.35,152.22c-2.87-1.7-6-4.66-5.64-8a15.9,15.9,0,0,1,.81-3.63l5.83,7.71A19.55,19.55,0,0,0,350.35,152.22Z" transform="translate(0 -47.34)"/><path class="cls-12" d="M336.51,122.77c1,10.72,1.17,15.26,6.7,20.88,8.32,8.46,21.12,5.61,23.32-5,2-9.56.05-25.48-10.47-30S335.53,112.05,336.51,122.77Z" transform="translate(0 -47.34)"/><path class="cls-8" d="M349.86,126.15c.06,1,.67,1.83,1.38,1.84s1.23-.78,1.17-1.79-.67-1.83-1.37-1.84S349.8,125.15,349.86,126.15Z" transform="translate(0 -47.34)"/><path class="cls-8" d="M361,126c0,1,.67,1.77,1.37,1.79s1.23-.77,1.17-1.74-.67-1.77-1.37-1.79S360.91,125,361,126Z" transform="translate(0 -47.34)"/><path class="cls-8" d="M348.16,122.31a.5.5,0,0,0,.38-.12,3.89,3.89,0,0,1,3.53-1,.49.49,0,0,0,.62-.36.58.58,0,0,0-.4-.66,4.86,4.86,0,0,0-4.48,1.2.56.56,0,0,0,.35.93Z" transform="translate(0 -47.34)"/><path class="cls-8" d="M364.4,121.78a.49.49,0,0,0,.37-.06.52.52,0,0,0,.14-.73,5.53,5.53,0,0,0-4.09-2.69.48.48,0,0,0-.51.5.58.58,0,0,0,.53.56,4.38,4.38,0,0,1,3.21,2.17A.62.62,0,0,0,364.4,121.78Z" transform="translate(0 -47.34)"/><path class="cls-8" d="M341.08,129.49s3.3-5,1.94-14.73a3.07,3.07,0,0,1,2.42-3.49c4.63-.9,10.81-6.73,18.35,4.85,0,0-3.6-13.87-24.66-8.28-18.74,5-5.91,20.86-4,22.49S341.08,129.49,341.08,129.49Z" transform="translate(0 -47.34)"/><path class="cls-12" d="M333.27,131.51a8.65,8.65,0,0,0,5.21,4.05c2.83.71,4.3-3.85,3.33-6.7a5.71,5.71,0,0,0-6.42-3.69C332.67,125.72,331.82,129,333.27,131.51Z" transform="translate(0 -47.34)"/><path class="cls-8" d="M358.26,136.47a30.45,30.45,0,0,0-1.92,3.94c-.25,0-.5-.1-.75-.17-3.41-.8-4.73-2.29-5.16-3.71a4.49,4.49,0,0,1-.07-2.14,4.3,4.3,0,0,1,.38-1.16c1.55,1.5,4.68,2.49,6.37,3C357.81,136.38,358.26,136.47,358.26,136.47Z" transform="translate(0 -47.34)"/><path class="cls-3" d="M357.11,136.18l-.6,1.15c-3.21-.76-5.37-1.73-6.15-2.94a4.3,4.3,0,0,1,.38-1.16C352.29,134.73,355.42,135.72,357.11,136.18Z" transform="translate(0 -47.34)"/><path class="cls-20" d="M355.59,140.24c-3.41-.8-4.73-2.29-5.16-3.71a11.3,11.3,0,0,1,3.61,1.64A4.2,4.2,0,0,1,355.59,140.24Z" transform="translate(0 -47.34)"/><path class="cls-15" d="M358.09,125.7a36.12,36.12,0,0,0,3.56,6.52.82.82,0,0,1-.38,1.26,5.32,5.32,0,0,1-2.88.05Z" transform="translate(0 -47.34)"/><path class="cls-8" d="M350.82,124.34l2.46-.59S351.93,125.59,350.82,124.34Z" transform="translate(0 -47.34)"/><path class="cls-8" d="M361.88,124.29l2.46-.58S363,125.54,361.88,124.29Z" transform="translate(0 -47.34)"/><path class="cls-8" d="M365.67,120.66s6.49-7.68,2.16-14c-1.63-2.38-4.62-2.73-7.26-3.9-6.08-2.68-11-3.22-18.78,4.39-8.08,7.92-9.54,10.59-.63,20.34,0,0-1-1.27,2.33-4.17s6.93-5.49,5.17-8.3c0,0,2.74,1,2.93,3.66l4.82-1.32a9.14,9.14,0,0,0-1.48-3.72,8.6,8.6,0,0,1,3.31,3.62l4.16.79s-.61-3.82-1.78-5.2C360.62,112.84,364.43,116.77,365.67,120.66Z" transform="translate(0 -47.34)"/><path class="cls-14" d="M339.64,131.19a4.23,4.23,0,0,0-4.05-3.84" transform="translate(0 -47.34)"/><path class="cls-8" d="M390.59,220.13a15.54,15.54,0,0,1-1.71-1.54c-.46-.48-.77-1.09-.66-1.09a1.21,1.21,0,0,0-.09-.2l-.19-.45-.47-1.2c-.31-.86-.62-1.8-.92-2.75-.64-1.9-1.23-3.87-1.81-5.85-1.17-4-2.29-8-3.42-12.06l-2.08-8.48c-.3-1.37-.76-3.38-1.38-5.66h0c-1.69-6.23-4.51-14.53-8.2-17.84-5.72-4.38-9.38,1-11.73,6.64-2.27,5.39,3.32,20.13,3.32,20.13l6.8-.49c.86,3.13,1.76,6.25,2.65,9.43,1.16,4.16,2.53,8.23,3.91,12.31.71,2,1.44,4.09,2.24,6.15.47,1.05.9,2.08,1.38,3.17.23.54.5,1.11.79,1.68l.51.95a9.47,9.47,0,0,0,.71,1.14,11.32,11.32,0,0,0,3.65,3.08,15.61,15.61,0,0,0,3.36,1.4,20.44,20.44,0,0,0,6.5.78l1.23-5.94C393.51,222.34,391.9,221.2,390.59,220.13Z" transform="translate(0 -47.34)"/><path class="cls-21" d="M390.59,220.13a15.54,15.54,0,0,1-1.71-1.54c-.46-.48-.77-1.09-.66-1.09a1.21,1.21,0,0,0-.09-.2l-.19-.45-.47-1.2c-.31-.86-.62-1.8-.92-2.75-.64-1.9-1.23-3.87-1.81-5.85-1.17-4-2.29-8-3.42-12.06l-2.08-8.48c-.3-1.37-.76-3.38-1.38-5.66h0c-1.69-6.23-4.51-14.53-8.2-17.84-5.72-4.38-9.38,1-11.73,6.64-2.27,5.39,3.32,20.13,3.32,20.13l6.8-.49c.86,3.13,1.76,6.25,2.65,9.43,1.16,4.16,2.53,8.23,3.91,12.31.71,2,1.44,4.09,2.24,6.15.47,1.05.9,2.08,1.38,3.17.23.54.5,1.11.79,1.68l.51.95a9.47,9.47,0,0,0,.71,1.14,11.32,11.32,0,0,0,3.65,3.08,15.61,15.61,0,0,0,3.36,1.4,20.44,20.44,0,0,0,6.5.78l1.23-5.94C393.51,222.34,391.9,221.2,390.59,220.13Z" transform="translate(0 -47.34)"/><g class="cls-17"><path d="M370.92,172.57a21.94,21.94,0,0,1,2.26,5.34c.72,2.26,1.54,14.48-2.59,18.08v-8.46C370.74,182.34,370.77,177.76,370.92,172.57Z" transform="translate(0 -47.34)"/></g><path class="cls-8" d="M320.21,188l-6.39-21.77c4-6,24-10.66,24-10.66l10.25,3.59,2.92-2.87s5.06,1.13,9.39,2.54c5.78,1.89,8.91,3.4,10.29,6.61,0,0,2.41,7.11,1,21.76-.4,4,.06,25,1.18,31.9l6.81,21.56c-24.05,18.74-57.72,1.24-57.72,1.24,1.08-3.3,4.68-13.46,5.17-16.69-.35-4.13.14-10.49-1.61-17.71C325.15,206.13,320.79,189.37,320.21,188Z" transform="translate(0 -47.34)"/><path class="cls-21" d="M320.21,188l-6.39-21.77c4-6,24-10.66,24-10.66l10.25,3.59,2.92-2.87s5.06,1.13,9.39,2.54c5.78,1.89,8.91,3.4,10.29,6.61,0,0,2.41,7.11,1,21.76-.4,4,.06,25,1.18,31.9l6.81,21.56c-24.05,18.74-57.72,1.24-57.72,1.24,1.08-3.3,4.68-13.46,5.17-16.69-.35-4.13.14-10.49-1.61-17.71C325.15,206.13,320.79,189.37,320.21,188Z" transform="translate(0 -47.34)"/><path class="cls-7" d="M393.29,211.46A19.24,19.24,0,0,1,410,194L408.19,197l3.52-2.09L395.56,215.2Z" transform="translate(0 -47.34)"/><path class="cls-22" d="M393.29,211.46A19.24,19.24,0,0,1,410,194L408.19,197l3.52-2.09L395.56,215.2Z" transform="translate(0 -47.34)"/><path class="cls-7" d="M368,194.83l5.56-.17,26.57,9-24.22,37-23.84-6a2.54,2.54,0,0,1-1.78-3.14,2.09,2.09,0,0,1,.24-.58l9.63-17.41a1.15,1.15,0,0,0,0-1.11l-1.31-2.32a1.57,1.57,0,0,1,0-1.54l6.46-12.11A3.3,3.3,0,0,1,368,194.83Z" transform="translate(0 -47.34)"/><polygon class="cls-7" points="400.12 156.34 415.25 146.61 390.36 183.59 375.89 193.34 400.12 156.34"/><polygon class="cls-13" points="400.12 156.34 415.25 146.61 390.36 183.59 375.89 193.34 400.12 156.34"/><path class="cls-12" d="M397.14,220.87s-5.88-1.54-7.17-.53.47,2,.47,2-2-.91-2.62.06c-.73,1.16,1.13,2.16,1.13,2.16s-1.69-.67-2.18.23,1.49,2.23,1.49,2.23-1.31-.2-1.36.58,4.14,3.65,6,3.45,5.86-6.92,6.49-8.54.56-2.88-.63-4l-1.61,2.4Z" transform="translate(0 -47.34)"/><path class="cls-9" d="M390.38,222.42h0l3.63,1.39c.05,0,.11,0,.14-.08s0-.14,0-.15l-3.62-1.39c-.05,0-.11,0-.14.08S390.34,222.4,390.38,222.42Z" transform="translate(0 -47.34)"/><path class="cls-9" d="M389,224.69h0l3.34,1.66c.05,0,.11,0,.14-.07a.12.12,0,0,0,0-.16l-3.35-1.65s-.11,0-.14.07S388.94,224.67,389,224.69Z" transform="translate(0 -47.34)"/><path class="cls-9" d="M388.31,227.16l2.44,1.32c.05,0,.11,0,.15-.07a.12.12,0,0,0,0-.16l-2.44-1.31s-.11,0-.14.07S388.27,227.14,388.31,227.16Z" transform="translate(0 -47.34)"/><polygon class="cls-8" points="354.78 109.89 350.34 105.59 348.08 111.84 338.22 103.98 333.22 109.47 345.61 118.1 348.08 112.62 354.78 117.64 354.78 109.89"/><path class="cls-18" d="M354.78,157.23c.32.48,0,7.75,0,7.75l-6.69-5-2.48,5.48-11.9-8.21,12.18,10.61,2.2-6.44,7.47,6.44Z" transform="translate(0 -47.34)"/><path class="cls-18" d="M361.12,190.94,327,223.82v-6.5s30.71-28.13,31.09-28.17A18.51,18.51,0,0,1,361.12,190.94Z" transform="translate(0 -47.34)"/><polygon class="cls-18" points="329.08 146.21 325.38 130.96 324.65 148.66 329.08 146.21"/><path class="cls-7" d="M335.2,135.28a2.05,2.05,0,1,0,2.05-2.05A2.05,2.05,0,0,0,335.2,135.28Z" transform="translate(0 -47.34)"/><path class="cls-8" d="M313.82,166.25s-4.61,4.49-6.16,19.81c-1.12,11-3.93,34.71,4.61,37.76s45.82-32.59,45.82-32.59l-6-10.39L324.65,196s2.79-25.11-2-27.41A23.23,23.23,0,0,0,313.82,166.25Z" transform="translate(0 -47.34)"/><path class="cls-21" d="M313.82,166.25s-4.61,4.49-6.16,19.81c-1.12,11-3.93,34.71,4.61,37.76s45.82-32.59,45.82-32.59l-6-10.39L324.65,196s2.79-25.11-2-27.41A23.23,23.23,0,0,0,313.82,166.25Z" transform="translate(0 -47.34)"/><path class="cls-12" d="M354.38,180.07s3.59-7.2,5.3-7.51a6,6,0,0,1,3.08.25s11.62-6.85,12.39-5.05c.42,1-2.16,3.13-7.7,6.29,0,0,3.19,1.17,1.9,3a2.37,2.37,0,0,1,1.1,3.41s1.08,2.06-.28,3.38-7.74,5-11.43,5.49-5.86-6.64-5.86-6.64Z" transform="translate(0 -47.34)"/></g><g id="Puzzle"><path class="cls-7" d="M393.63,385.79c3.13,1.48,5.06,4.93,8.31,6.14a8.17,8.17,0,0,0,5.68-.16V345.44H363.28a7.28,7.28,0,0,1,.41-3c1.21-3.25,4.66-5.18,6.14-8.32,2.18-4.62-.89-10.39-5.39-12.81-3.5-1.88-5.32-2.24-8.34-2.06-3-.18-4.85.18-8.34,2.06-4.5,2.42-7.57,8.19-5.39,12.81,1.47,3.14,4.93,5.07,6.14,8.32a7.28,7.28,0,0,1,.41,3H304.58v103h103v-41.2a8.12,8.12,0,0,0-5.68-.16c-3.25,1.21-5.19,4.63-8.31,6.13-4.17,2-10.37-.9-12.82-5.39-1.89-3.48-2.23-5.32-2.06-8.34-.17-3,.18-4.84,2.06-8.34C383.24,386.68,389,383.61,393.63,385.79Z" transform="translate(0 -47.34)"/><path class="cls-23" d="M393.63,385.79c3.13,1.48,5.06,4.93,8.31,6.14a8.17,8.17,0,0,0,5.68-.16V345.44H363.28a7.28,7.28,0,0,1,.41-3c1.21-3.25,4.66-5.18,6.14-8.32,2.18-4.62-.89-10.39-5.39-12.81-3.5-1.88-5.32-2.24-8.34-2.06-3-.18-4.85.18-8.34,2.06-4.5,2.42-7.57,8.19-5.39,12.81,1.47,3.14,4.93,5.07,6.14,8.32a7.28,7.28,0,0,1,.41,3H304.58v103h103v-41.2a8.12,8.12,0,0,0-5.68-.16c-3.25,1.21-5.19,4.63-8.31,6.13-4.17,2-10.37-.9-12.82-5.39-1.89-3.48-2.23-5.32-2.06-8.34-.17-3,.18-4.84,2.06-8.34C383.24,386.68,389,383.61,393.63,385.79Z" transform="translate(0 -47.34)"/><path class="cls-7" d="M398.68,385.79c3.13,1.48,5.07,4.93,8.31,6.14a8.17,8.17,0,0,0,5.68-.16V345.44H368.33a7.28,7.28,0,0,1,.41-3c1.21-3.25,4.67-5.18,6.14-8.32,2.18-4.62-.89-10.39-5.39-12.81-3.49-1.88-5.32-2.24-8.34-2.06-3-.18-4.85.18-8.34,2.06-4.5,2.42-7.57,8.19-5.39,12.81,1.48,3.14,4.93,5.07,6.14,8.32a7.28,7.28,0,0,1,.41,3H309.63v103h103v-41.2a8.12,8.12,0,0,0-5.68-.16c-3.24,1.21-5.19,4.63-8.31,6.13-4.16,2-10.37-.9-12.82-5.39-1.89-3.48-2.23-5.32-2.06-8.34-.17-3,.18-4.84,2.06-8.34C388.29,386.68,394.05,383.61,398.68,385.79Z" transform="translate(0 -47.34)"/><path class="cls-23" d="M395.56,414s3.57,6.39,9.7,5.86,7.41-3.2,7.41-3.2l-.09-8.79-13.67,5.23A4.29,4.29,0,0,1,395.56,414Z" transform="translate(0 -47.34)"/></g><g id="Character_4" data-name="Character 4"><path class="cls-7" d="M522.44,359.58l35.22-13.53L578,326.34c.57-.66,6.46-10.82,6.46-10.82l10,21.37s-24.81,24.93-33.9,27.84c-7.34,2.34-33.35,8.71-33.35,8.71Z" transform="translate(0 -47.34)"/><path class="cls-23" d="M544,369.22s4.25-16.65,13.74-20.11,21.76,2,21.41,2.2-10.63,9.81-11,9.92-13.33,4.7-20.09,6.93Z" transform="translate(0 -47.34)"/><path class="cls-8" d="M480.09,346a7.26,7.26,0,0,0,.41,3c1.21,3.25,4.67,5.18,6.14,8.32,2.18,4.63-.89,10.39-5.39,12.81-3.49,1.88-5.32,2.24-8.34,2.06-3,.18-4.84-.18-8.34-2.06-4.5-2.42-7.57-8.18-5.39-12.81,1.48-3.14,4.93-5.07,6.14-8.32a7.26,7.26,0,0,0,.41-3H419.81v46.29a8.18,8.18,0,0,1-5.76.2c-3.25-1.21-5.18-4.66-8.32-6.14-4.62-2.18-10.39.89-12.81,5.39-1.88,3.5-2.23,5.33-2.06,8.34-.17,3,.18,4.85,2.06,8.34,2.42,4.5,8.19,7.57,12.81,5.39,3.14-1.47,5.07-4.92,8.32-6.13a8.18,8.18,0,0,1,5.76.19V449l102.68.46v-103Z" transform="translate(0 -47.34)"/><g class="cls-24"><path d="M480.09,346a7.26,7.26,0,0,0,.41,3c1.21,3.25,4.67,5.18,6.14,8.32,2.18,4.63-.89,10.39-5.39,12.81-3.49,1.88-5.32,2.24-8.34,2.06-3,.18-4.84-.18-8.34-2.06-4.5-2.42-7.57-8.18-5.39-12.81,1.48-3.14,4.93-5.07,6.14-8.32a7.26,7.26,0,0,0,.41-3H419.81v46.29a8.18,8.18,0,0,1-5.76.2c-3.25-1.21-5.18-4.66-8.32-6.14-4.62-2.18-10.39.89-12.81,5.39-1.88,3.5-2.23,5.33-2.06,8.34-.17,3,.18,4.85,2.06,8.34,2.42,4.5,8.19,7.57,12.81,5.39,3.14-1.47,5.07-4.92,8.32-6.13a8.18,8.18,0,0,1,5.76.19V449l102.68.46v-103Z" transform="translate(0 -47.34)"/></g><path class="cls-8" d="M484.63,346a7.27,7.27,0,0,0,.42,3c1.21,3.25,4.66,5.18,6.14,8.32,2.18,4.63-.89,10.39-5.4,12.81-3.49,1.88-5.32,2.24-8.33,2.06-3,.18-4.85-.18-8.34-2.06-4.5-2.42-7.57-8.18-5.39-12.81,1.47-3.14,4.92-5.07,6.13-8.32a7.27,7.27,0,0,0,.42-3H424.35v46.29a8.18,8.18,0,0,1-5.76.2c-3.24-1.21-5.18-4.66-8.31-6.14-4.63-2.18-10.39.89-12.82,5.39-1.88,3.5-2.23,5.33-2.06,8.34-.17,3,.18,4.85,2.06,8.34,2.43,4.5,8.19,7.57,12.82,5.39,3.13-1.47,5.07-4.92,8.31-6.13a8.17,8.17,0,0,1,5.76.19V449l102.68.46v-103Z" transform="translate(0 -47.34)"/><path class="cls-25" d="M557,415.43l16.15-1c-2.58,14.23-5.24,23.46-4.11,30.76l-6.51,4.36-6-5.93A162.72,162.72,0,0,1,557,415.43Z" transform="translate(0 -47.34)"/><path class="cls-7" d="M555.49,433.65l5.87.07c2.84,4.92,4.81,3.76,7.82.29,1.7-.18,2.14,1.78,2.27,2.31l3,11.64a1.82,1.82,0,0,1-1.28,2.24,1.88,1.88,0,0,1-.53.07l-14.08-.17-19.73-.23c-5.38-.06-6.43-5.49-4.21-6,10-2.08,17.08-4.93,20.19-7.79C555.44,435.6,554.85,435.22,555.49,433.65Z" transform="translate(0 -47.34)"/><path class="cls-16" d="M552.49,436.91a5.18,5.18,0,0,1,3.6,2.38" transform="translate(0 -47.34)"/><path class="cls-16" d="M549.82,438.88a5.18,5.18,0,0,1,3.59,2.37" transform="translate(0 -47.34)"/><path class="cls-16" d="M546.5,440.52a5.16,5.16,0,0,1,3.59,2.38" transform="translate(0 -47.34)"/><path class="cls-26" d="M573.22,450.2a1.88,1.88,0,0,1-.53.07l-14.08-.17-19.73-.23a5.13,5.13,0,0,1-5.09-3.18c.82,0,40,.78,40.54.61l.21.87A1.81,1.81,0,0,1,573.22,450.2Z" transform="translate(0 -47.34)"/><path class="cls-8" d="M618.81,372.59s-44.11-22.77-52.7-23.42-16.79,4-18.43,21.78,1.64,63.52,1.64,63.52l23.79.41,2.95-53s36.85,26.92,37.94,26.65,15.48-.93,15.48-.93Z" transform="translate(0 -47.34)"/><path class="cls-27" d="M618.81,372.59s-44.11-22.77-52.7-23.42-16.79,4-18.43,21.78,1.64,63.52,1.64,63.52l23.79.41,2.95-53s36.85,26.92,37.94,26.65,15.48-.93,15.48-.93Z" transform="translate(0 -47.34)"/><path class="cls-23" d="M574.71,406.67s-19.44,6.81-19.65,22.84,16.94,13,16.94,13Z" transform="translate(0 -47.34)"/><path class="cls-25" d="M635.69,448.44l-4.37-15.9c15.29-1.65,25.5,2.11,32.6-1.24l6.4,5.32-4.22,7.93S654.83,448.38,635.69,448.44Z" transform="translate(0 -47.34)"/><path class="cls-7" d="M656.21,448.55l-1.7-6c4.16-4.38,2.39-6-2.06-8.05-.69-1.69,1.17-2.72,1.67-3l11-6.62a1.94,1.94,0,0,1,2.67.63,1.7,1.7,0,0,1,.22.52L672,440.42l5.71,20.18c1.56,5.51-3.66,8.22-4.82,6.09-5.13-9.55-10.17-15.92-14-18.23C658.22,448,658,448.73,656.21,448.55Z" transform="translate(0 -47.34)"/><path class="cls-16" d="M660.44,450.63a5.48,5.48,0,0,1,1.34-4.38" transform="translate(0 -47.34)"/><path class="cls-16" d="M663.25,452.77a5.5,5.5,0,0,1,1.34-4.39" transform="translate(0 -47.34)"/><path class="cls-16" d="M665.92,455.66a5.51,5.51,0,0,1,1.34-4.39" transform="translate(0 -47.34)"/><path class="cls-26" d="M667.74,425.49a1.7,1.7,0,0,1,.22.52L672,440.42l5.71,20.18c.84,3-.3,5.13-1.71,6.15-.23-.84-11.27-41-11.59-41.51l.82-.48A1.93,1.93,0,0,1,667.74,425.49Z" transform="translate(0 -47.34)"/><path class="cls-8" d="M667.15,381.28l1.92,9.61s4.9,19.07-2,28.65a27.59,27.59,0,0,1-16.27,10.78l2,18.39-2,1.24s-12.69,0-38.66-1.18c-24.67-1.13-45.88-2.31-50.26-10s-5.38-11.38,1.77-20.52c6.47-8.25,55.73-20.42,57.44-20.91l-.68-4.2-.8-3Z" transform="translate(0 -47.34)"/><path class="cls-27" d="M667.15,381.28l1.92,9.61s4.9,19.07-2,28.65a27.59,27.59,0,0,1-16.27,10.78l2,18.39-2,1.24s-12.69,0-38.66-1.18c-24.67-1.13-45.88-2.31-50.26-10s-5.38-11.38,1.77-20.52c6.47-8.25,55.73-20.42,57.44-20.91l-.68-4.2-.8-3Z" transform="translate(0 -47.34)"/><path class="cls-23" d="M650.82,430.32c-1.51.4-55-1.33-55-1.33s15.82,2.71,27.51,3.7S650.82,430.32,650.82,430.32Z" transform="translate(0 -47.34)"/><path class="cls-23" d="M621.11,397.37,651.92,392S629.72,391.63,621.11,397.37Z" transform="translate(0 -47.34)"/><path class="cls-25" d="M542.57,375.55s-2.57-4-6.4-4.72-6.67-2.4-9.56-2.77-.26,2.55,1.44,3.83,3.63,2.73,2.47,3.86-14.68,4.55-16.11,6.3.92,1.87.92,1.87-3.26.92-3.25,2.32c0,.36.6,1.19,2.15,1,3.49-.42,10.76-1.68,10.76-1.68-.42.07-9.29,2.26-10.57,2.77-1.68.65-2.14,1.82-1.73,2.78.59,1.37,11.68-1,12.22-.75,0,0-6.43,1.14-7,3s3.48,1.32,7,.2c3.22-1,9.82-2.2,13-3.56,3.92-1.68,6.17-3.69,6.26-7.68A13.66,13.66,0,0,0,542.57,375.55Z" transform="translate(0 -47.34)"/><polygon class="cls-25" points="538.34 328.13 548.21 324.18 551.62 334.85 540.04 338.98 538.34 328.13"/><path class="cls-25" d="M609.91,301.65s-2.68-6-2.11-18l-.66-.14c.07-1.68.2-3.24.35-4.6v-.05L594.43,292c1.22,3.5,1.59,10.73,1.52,13.84,0,0-.67,5.75,6.43,4.3C607.57,309,609.91,301.65,609.91,301.65Z" transform="translate(0 -47.34)"/><path class="cls-9" d="M595.37,297.06l8.35-4.09c-.15,2.93-1.8,6.76-7.87,8.5A27.45,27.45,0,0,0,595.37,297.06Z" transform="translate(0 -47.34)"/><path class="cls-25" d="M605.83,271.36c1.29,10,2.22,15.55-1.8,21.52-6,9-18.78,6.86-23-2.54-3.83-8.46-5.3-23.33,3.62-29A13.86,13.86,0,0,1,605.83,271.36Z" transform="translate(0 -47.34)"/><path class="cls-8" d="M602,257.34c-4.61-5.4-13.2-.67-16.46,2.83-.49.53,8.34,3,7.82,2.94l2.79,2.31c.36-.15,1.1,3.27,1.73,6.24a15.35,15.35,0,0,0,3.78,7.27,38.72,38.72,0,0,0,6.12,5.4c3.11-2.33,2.16-8.36,2.56-12.13C610.92,266.58,610.79,256.07,602,257.34Z" transform="translate(0 -47.34)"/><path class="cls-25" d="M611.29,278.81a9.35,9.35,0,0,1-3.58,6.32c-2.66,2-4.37-1-4.69-4.13-.29-2.84-.13-6.4,3.05-7.18S611.64,275.74,611.29,278.81Z" transform="translate(0 -47.34)"/><path class="cls-8" d="M592.28,276.91c.19,1-.18,1.92-.84,2s-1.36-.59-1.55-1.6.18-1.92.84-2S592.09,275.9,592.28,276.91Z" transform="translate(0 -47.34)"/><path class="cls-8" d="M582.44,279c.19,1-.19,1.92-.85,2s-1.35-.6-1.55-1.6.19-1.92.85-2.05S582.24,278,582.44,279Z" transform="translate(0 -47.34)"/><path class="cls-28" d="M585.54,277.83s-2.22,5.62-2.85,7.86c1.65,1,3.95-.05,3.95-.05Z" transform="translate(0 -47.34)"/><path class="cls-8" d="M593.83,271.69a.48.48,0,0,1-.49,0,3.94,3.94,0,0,0-3.48-.12.48.48,0,0,1-.66-.17.49.49,0,0,1,.18-.66,4.85,4.85,0,0,1,4.4.1.48.48,0,0,1,.21.65A.46.46,0,0,1,593.83,271.69Z" transform="translate(0 -47.34)"/><path class="cls-29" d="M590.56,288.21a6,6,0,0,0,3.78-2.82" transform="translate(0 -47.34)"/><path class="cls-14" d="M608.52,276.53a1.8,1.8,0,0,0-2-.27,3.15,3.15,0,0,0-1.44,1.55,5.13,5.13,0,0,0-.47,2.53" transform="translate(0 -47.34)"/><path class="cls-8" d="M577.26,275.6a.48.48,0,0,1-.27-.09.49.49,0,0,1-.12-.67,4.74,4.74,0,0,1,3.81-2.13.5.5,0,0,1,.47.5.48.48,0,0,1-.49.46,3.73,3.73,0,0,0-3,1.72A.48.48,0,0,1,577.26,275.6Z" transform="translate(0 -47.34)"/><path class="cls-8" d="M602,257.34a17,17,0,0,0-16.74-5.08c-8.53,2-13,8.26-13.15,14.23a12.16,12.16,0,0,0,1.17,5.82,1.24,1.24,0,0,0,2.3-.23,7.62,7.62,0,0,1,.33-.91,1.28,1.28,0,0,0,.11.2,1.24,1.24,0,0,0,2.3-.55,6.33,6.33,0,0,1,.13-1.15l0,0a1.23,1.23,0,0,0,2.22-.42,8.91,8.91,0,0,1,11.77-6l3.69,2.19C600.36,263,602,257.34,602,257.34Z" transform="translate(0 -47.34)"/><polygon class="cls-23" points="617.91 343.14 617.33 347.04 600.12 352.22 604.09 354.76 621.11 350.03 621.82 342.45 617.91 343.14"/><path class="cls-7" d="M630.76,302.88c-7.72-4.95-21.34-2.6-21.34-2.6l-25,15.24,17.08,40.13s7.12,17.07,11,28.44c1,2.82,2.77,6.75,5.72,6.36l47.43-8.57a4,4,0,0,0,3.15-5C664.22,360.34,637.68,307.31,630.76,302.88Z" transform="translate(0 -47.34)"/><path class="cls-23" d="M635.22,325.2a115.43,115.43,0,0,1-21,26.79,52,52,0,0,0-9.13,12.3l-3.34-8.55Z" transform="translate(0 -47.34)"/><path class="cls-7" d="M611.71,314.18l-32.33,40.31-38,17.24,3.78,15.71s30.78-8.31,43.15-16,32.76-29.27,32.76-29.27,17.79-14.27,16.94-25.82S620.27,302.09,611.71,314.18Z" transform="translate(0 -47.34)"/><path class="cls-7" d="M594.16,309.6s1.2-6.16,1.78-5.92,6.36,3.72,6.36,3.72l6.47-9.68,3.88,2.57-8.93,18.51Z" transform="translate(0 -47.34)"/><polygon class="cls-23" points="591.32 288.1 583.86 277.86 589.88 293.89 592.82 290.77 613.41 264.74 591.32 288.1"/><path class="cls-23" d="M594.16,309.6c.32.11,5.68,3.72,5.38,3.78s2.26-4.32,2.26-4.32l5.67,2.16L612.13,300l-4.58,13-5.38-2.6-2.63,4.76Z" transform="translate(0 -47.34)"/></g><g id="Character_1" data-name="Character 1"><path class="cls-8" d="M225.72,233a7.26,7.26,0,0,0-.41-3c-1.21-3.25-4.66-5.18-6.14-8.32-2.18-4.63.89-10.39,5.39-12.81,3.49-1.88,5.32-2.24,8.34-2.07,3-.17,4.85.19,8.34,2.07,4.5,2.42,7.57,8.18,5.39,12.81-1.47,3.14-4.93,5.07-6.14,8.32a7.26,7.26,0,0,0-.41,3H286v-46.3a8.23,8.23,0,0,1,5.76-.19c3.25,1.21,5.18,4.66,8.32,6.14,4.62,2.18,10.39-.89,12.81-5.4,1.88-3.49,2.24-5.32,2.06-8.33.18-3-.18-4.85-2.06-8.34-2.42-4.5-8.19-7.57-12.81-5.39-3.14,1.47-5.07,4.92-8.32,6.13a8.18,8.18,0,0,1-5.76-.19V129.91l-102.68-.46v103Z" transform="translate(0 -47.34)"/><g class="cls-24"><path d="M225.72,233a7.26,7.26,0,0,0-.41-3c-1.21-3.25-4.66-5.18-6.14-8.32-2.18-4.63.89-10.39,5.39-12.81,3.49-1.88,5.32-2.24,8.34-2.07,3-.17,4.85.19,8.34,2.07,4.5,2.42,7.57,8.18,5.39,12.81-1.47,3.14-4.93,5.07-6.14,8.32a7.26,7.26,0,0,0-.41,3H286v-46.3a8.23,8.23,0,0,1,5.76-.19c3.25,1.21,5.18,4.66,8.32,6.14,4.62,2.18,10.39-.89,12.81-5.4,1.88-3.49,2.24-5.32,2.06-8.33.18-3-.18-4.85-2.06-8.34-2.42-4.5-8.19-7.57-12.81-5.39-3.14,1.47-5.07,4.92-8.32,6.13a8.18,8.18,0,0,1-5.76-.19V129.91l-102.68-.46v103Z" transform="translate(0 -47.34)"/></g><path class="cls-8" d="M228.84,233a7.27,7.27,0,0,0-.42-3c-1.21-3.25-4.66-5.18-6.14-8.32-2.18-4.63.89-10.39,5.4-12.81,3.49-1.88,5.32-2.24,8.33-2.07,3-.17,4.85.19,8.34,2.07,4.5,2.42,7.57,8.18,5.39,12.81-1.47,3.14-4.92,5.07-6.13,8.32a7.27,7.27,0,0,0-.42,3h45.93v-46.3a8.23,8.23,0,0,1,5.76-.19c3.24,1.21,5.18,4.66,8.31,6.14,4.63,2.18,10.39-.89,12.82-5.4,1.88-3.49,2.23-5.32,2.06-8.33.17-3-.18-4.85-2.06-8.34-2.43-4.5-8.19-7.57-12.82-5.39-3.13,1.47-5.07,4.92-8.31,6.13a8.17,8.17,0,0,1-5.76-.19V129.91l-102.68-.46v103Z" transform="translate(0 -47.34)"/><path class="cls-30" d="M160.56,177.8s-7.49,26.56-2.7,31.18,21.58,1.55,20.73,1.2,4.28-32.29,4.62-31.13S160.56,177.8,160.56,177.8Z" transform="translate(0 -47.34)"/><path class="cls-30" d="M169.89,417.65l0,23,10.7.83,3.76-21.64C179.44,416.34,174.62,415.5,169.89,417.65Z" transform="translate(0 -47.34)"/><path class="cls-8" d="M169.77,438.29c-1.05,3-1.12,15.48-1.12,15.48l22.68,0c1.35-4.5-.73-7.57-3.38-8-1.14-.17-2.47-1.44-3.45-2.54,0-.14-1.39-7.06-2.25-7.39,0,0-.59-.72-1.09,0a11.91,11.91,0,0,0-.94,3.05C176.68,434.18,173.21,434.82,169.77,438.29Z" transform="translate(0 -47.34)"/><path class="cls-3" d="M169.5,441.9a7.59,7.59,0,0,1,7.55,1.07c.39.29.76-.4.37-.7a8.22,8.22,0,0,0-8.12-1.14c-.44.17-.25.95.2.77Z" transform="translate(0 -47.34)"/><path class="cls-3" d="M191.27,452h0l-22.35,0a.4.4,0,0,1,0-.8h0l22.35,0a.4.4,0,0,1,0,.8Z" transform="translate(0 -47.34)"/><path class="cls-30" d="M216.06,414.64l0,26,10.29.85,5.07-24.34C227.26,413.83,222.46,412.2,216.06,414.64Z" transform="translate(0 -47.34)"/><path class="cls-8" d="M215.56,438.34c-1.05,3-1.12,15.49-1.12,15.49l26.06,0c1.35-4.5-1.47-7.17-4.12-7.58-1.13-.17-5.11-1.84-6.09-2.95,0-.14-1.39-7.05-2.25-7.38,0,0-.59-.72-1.09,0A12,12,0,0,0,226,439C222.47,434.24,219,434.87,215.56,438.34Z" transform="translate(0 -47.34)"/><path class="cls-3" d="M215.29,442a7.59,7.59,0,0,1,7.55,1.07c.39.3.76-.4.37-.69a8.22,8.22,0,0,0-8.12-1.15c-.44.18-.25.95.2.77Z" transform="translate(0 -47.34)"/><path class="cls-3" d="M240.5,452h0l-25.79,0a.41.41,0,0,1,0-.81h0l25.79,0a.38.38,0,0,1,.37.4A.39.39,0,0,1,240.5,452Z" transform="translate(0 -47.34)"/><path class="cls-8" d="M165.46,429l22.8,1.22c5.11-16.58,10.17-76,10.69-93.87.63-21.33,8.26-74.85,1.51-86s-37.29-2.26-37.29-2.26,3.81,65.16,2.29,86C164.14,352.06,162.1,405,165.46,429Z" transform="translate(0 -47.34)"/><polygon class="cls-7" points="190.72 376.87 189.24 384.49 164.53 383.69 163.62 376.37 190.72 376.87"/><path class="cls-8" d="M211,429l22.6,1.22c2.75-18.35,13.81-85.19,12.9-98-1.11-15.64-14.2-83.33-19.07-88.55S186.92,252,186.92,252s14.65,58.21,26.2,83.39C215.52,340.6,209.14,406.68,211,429Z" transform="translate(0 -47.34)"/><polygon class="cls-7" points="236.19 377.44 235.03 384.49 209.91 382.88 209.41 375.5 236.19 377.44"/><polygon class="cls-18" points="201.18 255.96 194.54 233.78 182.76 229.93 191.97 237.07 199.38 277.51 201.18 255.96"/><path class="cls-8" d="M213.88,106.8c0,1,.42,1.68,1,1.78s1.16-.7,1.21-1.67-.4-1.68-1-1.78S214,105.88,213.88,106.8Z" transform="translate(0 -47.34)"/><path class="cls-31" d="M214.27,106.67a33.08,33.08,0,0,0,2.26,9,5.46,5.46,0,0,1-4.6-.37Z" transform="translate(0 -47.34)"/><path class="cls-8" d="M212.15,103.73a.6.6,0,0,1-.35-.08.56.56,0,0,1,0-.79h0a5.5,5.5,0,0,1,4.63-2,.54.54,0,0,1,.49.58h0a.57.57,0,0,1-.62.48h0a4.41,4.41,0,0,0-3.65,1.68A.52.52,0,0,1,212.15,103.73Z" transform="translate(0 -47.34)"/><path class="cls-30" d="M214.28,119.52a13,13,0,0,1-.46,1.5,15,15,0,0,1-5.36,7,16.24,16.24,0,0,1-2,1.19,13.76,13.76,0,0,1-16.22-2.54c-5.43-5.38-5.29-11.61-5.9-22.14a14.37,14.37,0,0,1,1.09-6.63,14.76,14.76,0,0,1,19.18-7.78h0C215.12,94.36,216.57,110,214.28,119.52Z" transform="translate(0 -47.34)"/><path class="cls-13" d="M208.42,128.05a16.24,16.24,0,0,1-2,1.19,13.85,13.85,0,0,1-11.75.5,16.4,16.4,0,0,1,1.92-3.57A21.46,21.46,0,0,1,208.42,128.05Z" transform="translate(0 -47.34)"/><path class="cls-30" d="M186.85,141.71c5.29,4.71,18.22,3,18.22,3s8.07-2.18,6.36-4.65c-4.74-.78-7.05-3-8-5.76A13.35,13.35,0,0,1,203,129a27,27,0,0,1,.4-3l-16-11.64C189.45,122,192,136.15,186.85,141.71Z" transform="translate(0 -47.34)"/><path class="cls-8" d="M208.42,109.93l2.31.85-1.15-4.64s3.38-5.07,0-9.46c0,0,9.33-2.79,4.06-7.61-2-1.8-4.4,0-10.84-2.75-3.5-1.51-14.43-1.62-15,2.75,0,0-7.88,0-8.73,13.18a26.16,26.16,0,0,0,8.34,20.84s9.52,2.21,14.18-1.55S208.42,109.93,208.42,109.93Z" transform="translate(0 -47.34)"/><path class="cls-30" d="M202.33,110.68a6.81,6.81,0,0,0,3.56,4.68c2.18.91,3.62-2.11,3.3-5.27-.3-2.82-1.78-6.77-4.11-6.24S201.57,107.84,202.33,110.68Z" transform="translate(0 -47.34)"/><path class="cls-7" d="M170.6,139.18s-3.72,1.13-5.57,1.8c-3.85,1.41-6.39,5.7-7.78,9.91-3.41,10.29-8.91,34.64-8.91,34.64l20,4.2L179,166.78Z" transform="translate(0 -47.34)"/><path class="cls-21" d="M170.6,139.18s-5.35,1-8.16,3.32c-2.14,1.76-3.85,4.33-5.19,8.39-3.41,10.29-8.91,34.64-8.91,34.64l20,4.2L179,166.78Z" transform="translate(0 -47.34)"/><path class="cls-7" d="M219,140.36c-5.89-.64-24-4.73-48.37-1.18l-5.71,90.07a238.54,238.54,0,0,1-2.88,25.6c24.75,10.63,54,7.59,70.6-1.34-.19.37-.74-9.46-1.59-23.85-1.49-25.37-3.94-64.93-7.1-87.83C223.83,141.26,219.55,140.42,219,140.36Z" transform="translate(0 -47.34)"/><g class="cls-32"><path class="cls-3" d="M219,140.36c-5.89-.64-24-4.73-48.37-1.18l-5.71,90.07a238.54,238.54,0,0,1-2.88,25.6c24.75,10.63,54,7.59,70.6-1.34-.19.37-.74-9.46-1.59-23.85-1.49-25.37-3.94-64.93-7.1-87.83C223.83,141.26,219.55,140.42,219,140.36Z" transform="translate(0 -47.34)"/></g><path class="cls-7" d="M186.58,138.24a8.39,8.39,0,0,1,2.94-4.42l13.57,1.05,6.36,4.19Z" transform="translate(0 -47.34)"/><path class="cls-21" d="M186.58,138.24a8.39,8.39,0,0,1,2.94-4.42l13.57,1.05,6.36,4.19Z" transform="translate(0 -47.34)"/><path class="cls-13" d="M218.34,168.39c2.17,10.15,5.29,30,11.19,37l-1.41-20.12Z" transform="translate(0 -47.34)"/><polygon class="cls-13" points="167.04 142.11 167.56 116.1 162.1 140.87 167.04 142.11"/><path class="cls-30" d="M228.74,176.41c-.77.3,13.92,33.35,19.91,33.64s34.06-12.48,34.06-12.48l-6.3-7.52-21.23,1.22-10.82-23.05Z" transform="translate(0 -47.34)"/><path class="cls-7" d="M221.35,141.49c-7.62,5-11.4,16.43,9,51.6l22.06-13.47c-4.47-8.23-9.19-14.22-14.45-26.14C227.4,138.24,221.35,141.49,221.35,141.49Z" transform="translate(0 -47.34)"/><path class="cls-21" d="M221.35,141.49c-7.62,5-11.4,16.43,9,51.6l22.06-13.47c-4.47-8.23-9.19-14.22-14.45-26.14C227.4,138.24,221.35,141.49,221.35,141.49Z" transform="translate(0 -47.34)"/><path class="cls-30" d="M292.6,189.83c0-1.93-.59-4-1.63-4.09s-6.59,0-6.59,0h0c0-1.55,2.92-3.26,2-4.32-1.24-1.39-8.43,4.54-8.88,5.75a14.39,14.39,0,0,1-1.34,3l3.8,8.72s7,4.63,8.66,3a4.6,4.6,0,0,0,1.49-3.38s1.63-2.26,1.48-3.75S292.6,191.76,292.6,189.83Z" transform="translate(0 -47.34)"/></g></svg>