<svg xmlns="http://www.w3.org/2000/svg" viewBox="0 0 500 372.61"><defs><style>.cls-1{fill:#ebebeb;}.cls-2{fill:#e6e6e6;}.cls-3{fill:#f0f0f0;}.cls-4{fill:#fafafa;}.cls-11,.cls-15,.cls-18,.cls-5{fill:#fff;}.cls-6{opacity:0.7;}.cls-7{fill:#e0e0e0;}.cls-8{fill:#f5f5f5;}.cls-13,.cls-9{fill:#407bff;}.cls-10{opacity:0.2;}.cls-11{opacity:0.9;}.cls-12,.cls-16{fill:#263238;}.cls-13,.cls-14,.cls-15{opacity:0.3;}.cls-16{opacity:0.4;}.cls-17{fill:#ffc3bd;}.cls-18{opacity:0.8;}.cls-19{fill:#ed847e;}</style></defs><g id="Background_Complete" data-name="Background Complete"><rect class="cls-1" y="327.45" width="500" height="0.25"/><rect class="cls-1" x="423.67" y="343.54" width="26.23" height="0.25"/><rect class="cls-1" x="322.53" y="340.28" width="34.23" height="0.25"/><rect class="cls-1" x="389.33" y="334.26" width="26.44" height="0.25"/><rect class="cls-1" x="67.7" y="335.94" width="43.19" height="0.25"/><rect class="cls-1" x="52.46" y="335.94" width="6.33" height="0.25"/><rect class="cls-1" x="131.47" y="340.16" width="56.2" height="0.25"/><path class="cls-1" d="M237,337.8H43.91a5.71,5.71,0,0,1-5.7-5.71V60.66A5.71,5.71,0,0,1,43.91,55H237a5.71,5.71,0,0,1,5.71,5.71V332.09A5.71,5.71,0,0,1,237,337.8ZM43.91,55.2a5.46,5.46,0,0,0-5.45,5.46V332.09a5.46,5.46,0,0,0,5.45,5.46H237a5.47,5.47,0,0,0,5.46-5.46V60.66A5.47,5.47,0,0,0,237,55.2Z" transform="translate(0 -54.95)"/><path class="cls-1" d="M453.31,337.8H260.21a5.72,5.72,0,0,1-5.71-5.71V60.66A5.72,5.72,0,0,1,260.21,55h193.1A5.71,5.71,0,0,1,459,60.66V332.09A5.71,5.71,0,0,1,453.31,337.8ZM260.21,55.2a5.47,5.47,0,0,0-5.46,5.46V332.09a5.47,5.47,0,0,0,5.46,5.46h193.1a5.47,5.47,0,0,0,5.46-5.46V60.66a5.47,5.47,0,0,0-5.46-5.46Z" transform="translate(0 -54.95)"/><rect class="cls-2" x="66.62" y="28.51" width="271.32" height="155.44"/><rect class="cls-3" x="68.51" y="28.51" width="273.47" height="155.44"/><rect class="cls-4" x="133.87" y="30.09" width="142.75" height="262.17" transform="translate(366.42 -99.02) rotate(90)"/><polygon class="cls-5" points="106.34 177.6 139.49 34.85 182.96 34.85 149.8 177.6 106.34 177.6"/><polygon class="cls-5" points="156.84 177.6 189.99 34.85 209.62 34.85 176.47 177.6 156.84 177.6"/><polygon class="cls-5" points="234.72 177.6 267.88 34.85 301.41 34.85 268.25 177.6 234.72 177.6"/><rect class="cls-2" x="264.6" y="160.82" width="142.75" height="0.72" transform="translate(497.15 -229.75) rotate(90)"/><rect class="cls-3" x="197.1" y="28.51" width="16.3" height="155.44"/><rect class="cls-2" x="125.36" y="160.82" width="142.75" height="0.72" transform="translate(357.92 -90.51) rotate(90)"/><rect class="cls-2" x="204.96" y="28.51" width="0.57" height="155.44"/><g class="cls-6"><rect class="cls-1" x="321.4" y="75.22" width="26.08" height="125.16" transform="translate(668.88 220.65) rotate(180)"/><rect class="cls-7" x="304.51" y="20.27" width="16.89" height="110.55"/><rect class="cls-1" x="278.43" y="75.22" width="26.08" height="125.16" transform="translate(582.94 220.65) rotate(180)"/><rect class="cls-7" x="261.54" y="20.27" width="16.89" height="110.55"/><rect class="cls-1" x="235.46" y="75.22" width="26.08" height="125.16" transform="translate(497 220.65) rotate(180)"/><rect class="cls-7" x="218.57" y="20.27" width="16.89" height="110.55"/><rect class="cls-1" x="192.49" y="75.22" width="26.08" height="125.16" transform="translate(411.06 220.65) rotate(180)"/><rect class="cls-7" x="175.6" y="20.27" width="16.89" height="110.55"/><rect class="cls-1" x="149.52" y="75.22" width="26.08" height="125.16" transform="translate(325.12 220.65) rotate(180)"/><rect class="cls-7" x="132.63" y="20.27" width="16.89" height="110.55"/><rect class="cls-1" x="106.55" y="75.22" width="26.08" height="125.16" transform="translate(239.18 220.65) rotate(180)"/><rect class="cls-1" x="63.58" y="75.22" width="26.08" height="125.16" transform="translate(153.24 220.65) rotate(180)"/><rect class="cls-7" x="89.66" y="20.27" width="16.89" height="110.55"/></g><rect class="cls-2" x="399.64" y="229.38" width="33.55" height="98.07"/><polygon class="cls-8" points="424.22 327.45 433.18 327.45 433.18 310.53 414.83 310.53 424.22 327.45"/><rect class="cls-2" x="194.46" y="229.38" width="33.55" height="98.07"/><rect class="cls-8" x="220.19" y="229.38" width="212.99" height="92.24"/><polygon class="cls-8" points="229.14 327.45 220.19 327.45 220.19 310.53 238.54 310.53 229.14 327.45"/><rect class="cls-2" x="227.14" y="237.47" width="199.1" height="34.14"/><rect class="cls-2" x="227.14" y="278.92" width="199.1" height="34.14"/><rect class="cls-3" x="396.04" y="128.41" width="51.27" height="8.22" transform="translate(843.34 210.09) rotate(180)"/><rect class="cls-2" x="371.59" y="73.45" width="24.45" height="8.22"/><polygon class="cls-1" points="396.98 81.67 421.67 81.67 403.67 93.43 396.98 93.43 396.98 81.67"/><polygon class="cls-7" points="394.4 81.67 419.09 81.67 401.09 93.43 394.4 93.43 394.4 81.67"/><rect class="cls-2" x="415.3" y="93.2" width="16.05" height="35.2" transform="translate(846.65 166.66) rotate(180)"/><rect class="cls-3" x="431.35" y="38.25" width="4.64" height="35.2"/><polygon class="cls-2" points="394.62 41.35 415.3 41.35 420.29 73.45 399.6 73.45 394.62 41.35"/><polygon class="cls-3" points="421.28 41.35 415.3 41.35 420.29 73.45 426.27 73.45 421.28 41.35"/><rect class="cls-1" x="385.08" y="92.03" width="23.44" height="36.38" transform="translate(793.6 165.48) rotate(180)"/><rect class="cls-8" x="408.52" y="37.08" width="6.78" height="36.38"/><path class="cls-7" d="M403.08,128.41h-1v-21.9a6.89,6.89,0,1,0-13.78,0v21.9h-1v-21.9a7.89,7.89,0,1,1,15.78,0Z" transform="translate(0 -54.95)"/><rect class="cls-3" x="396.04" y="199.71" width="51.27" height="8.22" transform="translate(843.34 352.7) rotate(180)"/><rect class="cls-2" x="371.59" y="144.76" width="24.45" height="8.22"/><polygon class="cls-1" points="396.98 152.98 421.67 152.98 403.67 164.73 396.98 164.73 396.98 152.98"/><polygon class="cls-7" points="394.4 152.98 419.09 152.98 401.09 164.73 394.4 164.73 394.4 152.98"/><rect class="cls-7" x="409.83" y="173.68" width="23.44" height="26.03" transform="translate(843.1 318.44) rotate(180)"/><rect class="cls-3" x="433.27" y="118.73" width="6.01" height="26.03"/><rect class="cls-7" x="402.58" y="166.32" width="20.09" height="33.39" transform="translate(825.25 311.08) rotate(180)"/><rect class="cls-1" x="422.67" y="111.37" width="4.09" height="33.39"/><rect class="cls-2" x="396.1" y="169.67" width="17.61" height="30.05" transform="translate(809.81 314.43) rotate(180)"/><rect class="cls-3" x="413.71" y="114.71" width="5.09" height="30.05"/><rect class="cls-3" x="385.08" y="173.68" width="23.44" height="26.03" transform="translate(793.6 318.44) rotate(180)"/><rect class="cls-4" x="408.52" y="118.73" width="3.39" height="26.03"/><path class="cls-7" d="M403.08,199.71h-1V177.82a6.89,6.89,0,0,0-13.78,0v21.89h-1V177.82a7.89,7.89,0,0,1,15.78,0Z" transform="translate(0 -54.95)"/><rect class="cls-8" x="143.07" y="245.77" width="8.63" height="81.68"/><rect class="cls-3" x="147.95" y="245.77" width="7.51" height="81.68"/><rect class="cls-8" x="56.06" y="245.77" width="8.63" height="81.68"/><rect class="cls-3" x="60.94" y="245.77" width="7.51" height="81.68"/><rect class="cls-8" x="175.79" y="245.77" width="8.63" height="81.68"/><rect class="cls-3" x="180.66" y="245.77" width="7.51" height="81.68"/><rect class="cls-8" x="88.78" y="245.77" width="8.63" height="81.68"/><rect class="cls-3" x="56.06" y="292.42" width="132.11" height="10.36" transform="translate(244.24 540.25) rotate(180)"/><rect class="cls-2" x="56.06" y="292.42" width="37.59" height="10.36" transform="translate(149.72 540.25) rotate(180)"/><rect class="cls-3" x="93.66" y="245.77" width="7.51" height="81.68"/></g><g id="Shadow"><ellipse id="_Path_" data-name="&lt;Path&gt;" class="cls-8" cx="250" cy="361.29" rx="193.89" ry="11.32"/></g><g id="Books"><path class="cls-9" d="M191.56,366.35H391.5a0,0,0,0,1,0,0v50.14a0,0,0,0,1,0,0H191.56a3.88,3.88,0,0,1-3.88-3.88V370.23A3.88,3.88,0,0,1,191.56,366.35Z" transform="translate(579.19 727.89) rotate(180)"/><path class="cls-10" d="M191.56,366.35H391.5a0,0,0,0,1,0,0v50.14a0,0,0,0,1,0,0H191.56a3.88,3.88,0,0,1-3.88-3.88V370.23A3.88,3.88,0,0,1,191.56,366.35Z" transform="translate(579.19 727.89) rotate(180)"/><rect class="cls-10" x="236.7" y="366.35" width="30.59" height="50.14" transform="translate(504 727.89) rotate(180)"/><rect class="cls-10" x="280.44" y="366.35" width="15.51" height="50.14" transform="translate(576.39 727.89) rotate(180)"/><path class="cls-9" d="M121.46,311.4h66.22a0,0,0,0,1,0,0v50.14a0,0,0,0,1,0,0H121.46a3.9,3.9,0,0,1-3.9-3.9V315.3A3.9,3.9,0,0,1,121.46,311.4Z"/><path class="cls-11" d="M117.56,316.79h57.93a5.09,5.09,0,0,1,5.09,5.09v29.19a5.09,5.09,0,0,1-5.09,5.09H117.56a0,0,0,0,1,0,0V316.79A0,0,0,0,1,117.56,316.79Z"/><circle class="cls-10" cx="363.49" cy="336.47" r="14.34"/><path class="cls-12" d="M206,330H406a0,0,0,0,1,0,0v36.39a0,0,0,0,1,0,0H206a3.88,3.88,0,0,1-3.88-3.88V333.84A3.88,3.88,0,0,1,206,330Z" transform="translate(608.11 641.36) rotate(180)"/><path class="cls-10" d="M206,330H406a0,0,0,0,1,0,0v36.39a0,0,0,0,1,0,0H206a3.88,3.88,0,0,1-3.88-3.88V333.84A3.88,3.88,0,0,1,206,330Z" transform="translate(608.11 641.36) rotate(180)"/><path class="cls-12" d="M135.93,275h66.22a0,0,0,0,1,0,0V311.4a0,0,0,0,1,0,0H135.93a3.9,3.9,0,0,1-3.9-3.9V278.91A3.9,3.9,0,0,1,135.93,275Z"/><path class="cls-11" d="M132,280.39H190a5.09,5.09,0,0,1,5.09,5.09v15.45A5.09,5.09,0,0,1,190,306H132a0,0,0,0,1,0,0V280.39A0,0,0,0,1,132,280.39Z"/><rect class="cls-13" x="239.83" y="338.58" width="148.28" height="19.16" rx="4.19" transform="translate(627.93 641.36) rotate(180)"/><rect class="cls-13" x="209.74" y="329.96" width="5.31" height="36.39" transform="translate(424.79 641.36) rotate(180)"/><rect class="cls-13" x="219.44" y="329.96" width="5.31" height="36.39" transform="translate(444.18 641.36) rotate(180)"/><path class="cls-9" d="M183.92,292.42H383.85a0,0,0,0,1,0,0V330a0,0,0,0,1,0,0H183.92a3.88,3.88,0,0,1-3.88-3.88V296.3A3.88,3.88,0,0,1,183.92,292.42Z" transform="translate(563.89 567.42) rotate(180)"/><path class="cls-14" d="M183.92,292.42H383.85a0,0,0,0,1,0,0V330a0,0,0,0,1,0,0H183.92a3.88,3.88,0,0,1-3.88-3.88V296.3A3.88,3.88,0,0,1,183.92,292.42Z" transform="translate(563.89 567.42) rotate(180)"/><rect class="cls-11" x="229.05" y="292.42" width="69.42" height="37.54" transform="translate(527.53 567.42) rotate(180)"/><rect class="cls-11" x="328.29" y="292.42" width="35.2" height="37.54" transform="translate(691.79 567.42) rotate(180)"/><path class="cls-9" d="M113.82,237.47H180a0,0,0,0,1,0,0V275a0,0,0,0,1,0,0H113.82a3.9,3.9,0,0,1-3.9-3.9V241.37A3.9,3.9,0,0,1,113.82,237.47Z"/><path class="cls-11" d="M109.92,242.85h57.93a5.09,5.09,0,0,1,5.09,5.09v16.59a5.09,5.09,0,0,1-5.09,5.09H109.92a0,0,0,0,1,0,0V242.85A0,0,0,0,1,109.92,242.85Z"/><path class="cls-9" d="M198.38,267.52H398.31a0,0,0,0,1,0,0v24.9a0,0,0,0,1,0,0H198.38a3.88,3.88,0,0,1-3.88-3.88V271.4A3.88,3.88,0,0,1,198.38,267.52Z" transform="translate(592.81 504.98) rotate(180)"/><path class="cls-15" d="M198.38,267.52H398.31a0,0,0,0,1,0,0v24.9a0,0,0,0,1,0,0H198.38a3.88,3.88,0,0,1-3.88-3.88V271.4A3.88,3.88,0,0,1,198.38,267.52Z" transform="translate(592.81 504.98) rotate(180)"/><path class="cls-10" d="M198.38,267.52H398.31a0,0,0,0,1,0,0v24.9a0,0,0,0,1,0,0H198.38a3.88,3.88,0,0,1-3.88-3.88V271.4A3.88,3.88,0,0,1,198.38,267.52Z" transform="translate(592.81 504.98) rotate(180)"/><path class="cls-9" d="M128.28,212.57H194.5a0,0,0,0,1,0,0v24.9a0,0,0,0,1,0,0H128.28a3.9,3.9,0,0,1-3.9-3.9v-17.1A3.9,3.9,0,0,1,128.28,212.57Z"/><path class="cls-15" d="M128.28,212.57H194.5a0,0,0,0,1,0,0v24.9a0,0,0,0,1,0,0H128.28a3.9,3.9,0,0,1-3.9-3.9v-17.1A3.9,3.9,0,0,1,128.28,212.57Z"/><path class="cls-11" d="M124.38,218H182.3a5.09,5.09,0,0,1,5.09,5.09v4a5.09,5.09,0,0,1-5.09,5.09H124.38a0,0,0,0,1,0,0V218A0,0,0,0,1,124.38,218Z"/><rect class="cls-16" x="212.4" y="274.08" width="90.62" height="11.77" transform="translate(515.41 504.98) rotate(180)"/><path class="cls-9" d="M228.9,204.33h28.59a0,0,0,0,1,0,0v8.25a0,0,0,0,1,0,0H228.9a.64.64,0,0,1-.64-.64v-7A.64.64,0,0,1,228.9,204.33Z"/><path class="cls-10" d="M228.9,204.33h28.59a0,0,0,0,1,0,0v8.25a0,0,0,0,1,0,0H228.9a.64.64,0,0,1-.64-.64v-7A.64.64,0,0,1,228.9,204.33Z"/><path class="cls-9" d="M258.14,259.28H269a0,0,0,0,1,0,0v8.25a0,0,0,0,1,0,0h-10.9a.64.64,0,0,1-.64-.64v-7A.64.64,0,0,1,258.14,259.28Z" transform="translate(526.53 471.87) rotate(180)"/><path class="cls-11" d="M258.66,260.17h9.53a.84.84,0,0,1,.84.84v4.8a.84.84,0,0,1-.84.84h-9.53a0,0,0,0,1,0,0v-6.48A0,0,0,0,1,258.66,260.17Z" transform="translate(527.7 471.87) rotate(180)"/><path class="cls-12" d="M226.52,198.34h28.59a0,0,0,0,1,0,0v6a0,0,0,0,1,0,0H226.52a.64.64,0,0,1-.64-.64V199A.64.64,0,0,1,226.52,198.34Z"/><path class="cls-10" d="M226.52,198.34h28.59a0,0,0,0,1,0,0v6a0,0,0,0,1,0,0H226.52a.64.64,0,0,1-.64-.64V199A.64.64,0,0,1,226.52,198.34Z"/><path class="cls-12" d="M255.76,253.29h10.9a0,0,0,0,1,0,0v6a0,0,0,0,1,0,0h-10.9a.64.64,0,0,1-.64-.64v-4.71A.64.64,0,0,1,255.76,253.29Z" transform="translate(521.77 457.63) rotate(180)"/><path class="cls-11" d="M256.28,254.18h9.53a.84.84,0,0,1,.84.84v2.54a.84.84,0,0,1-.84.84h-9.53a0,0,0,0,1,0,0v-4.22A0,0,0,0,1,256.28,254.18Z" transform="translate(522.94 457.63) rotate(180)"/><path class="cls-9" d="M230.16,192.16h28.59a0,0,0,0,1,0,0v6.18a0,0,0,0,1,0,0H230.16a.64.64,0,0,1-.64-.64v-4.9A.64.64,0,0,1,230.16,192.16Z"/><path class="cls-14" d="M230.16,192.16h28.59a0,0,0,0,1,0,0v6.18a0,0,0,0,1,0,0H230.16a.64.64,0,0,1-.64-.64v-4.9A.64.64,0,0,1,230.16,192.16Z"/><path class="cls-9" d="M259.39,247.12h10.9a0,0,0,0,1,0,0v6.18a0,0,0,0,1,0,0h-10.9a.64.64,0,0,1-.64-.64v-4.89A.64.64,0,0,1,259.39,247.12Z" transform="translate(529.04 445.46) rotate(180)"/><path class="cls-11" d="M259.92,248h9.53a.84.84,0,0,1,.84.84v2.73a.84.84,0,0,1-.84.84h-9.53a0,0,0,0,1,0,0V248A0,0,0,0,1,259.92,248Z" transform="translate(530.21 445.46) rotate(180)"/><path class="cls-9" d="M227.78,188.07h28.59a0,0,0,0,1,0,0v4.1a0,0,0,0,1,0,0H227.78a.64.64,0,0,1-.64-.64V188.7A.64.64,0,0,1,227.78,188.07Z"/><path class="cls-15" d="M227.78,188.07h28.59a0,0,0,0,1,0,0v4.1a0,0,0,0,1,0,0H227.78a.64.64,0,0,1-.64-.64V188.7A.64.64,0,0,1,227.78,188.07Z"/><path class="cls-10" d="M227.78,188.07h28.59a0,0,0,0,1,0,0v4.1a0,0,0,0,1,0,0H227.78a.64.64,0,0,1-.64-.64V188.7A.64.64,0,0,1,227.78,188.07Z"/><path class="cls-9" d="M257,243h10.9a0,0,0,0,1,0,0v4.1a0,0,0,0,1,0,0H257a.64.64,0,0,1-.64-.64v-2.81A.64.64,0,0,1,257,243Z" transform="translate(524.28 435.18) rotate(180)"/><path class="cls-15" d="M257,243h10.9a0,0,0,0,1,0,0v4.1a0,0,0,0,1,0,0H257a.64.64,0,0,1-.64-.64v-2.81A.64.64,0,0,1,257,243Z" transform="translate(524.28 435.18) rotate(180)"/><path class="cls-11" d="M257.54,243.91h9.53a.84.84,0,0,1,.84.84v.65a.84.84,0,0,1-.84.84h-9.53a0,0,0,0,1,0,0v-2.32A0,0,0,0,1,257.54,243.91Z" transform="translate(525.45 435.18) rotate(180)"/><path class="cls-12" d="M226.52,182.08h28.59a0,0,0,0,1,0,0v6a0,0,0,0,1,0,0H226.52a.64.64,0,0,1-.64-.64v-4.71A.64.64,0,0,1,226.52,182.08Z"/><path class="cls-10" d="M226.52,182.08h28.59a0,0,0,0,1,0,0v6a0,0,0,0,1,0,0H226.52a.64.64,0,0,1-.64-.64v-4.71A.64.64,0,0,1,226.52,182.08Z"/><path class="cls-12" d="M255.76,237H263a0,0,0,0,1,0,0v6a0,0,0,0,1,0,0h-7.27a.64.64,0,0,1-.64-.64v-4.71A.64.64,0,0,1,255.76,237Z" transform="translate(518.14 425.1) rotate(180)"/><path class="cls-11" d="M256.28,237.92h5.9a.84.84,0,0,1,.84.84v2.54a.84.84,0,0,1-.84.84h-5.9a0,0,0,0,1,0,0v-4.22A0,0,0,0,1,256.28,237.92Z" transform="translate(519.31 425.1) rotate(180)"/><path class="cls-9" d="M230.16,175.9h28.59a0,0,0,0,1,0,0v6.18a0,0,0,0,1,0,0H230.16a.64.64,0,0,1-.64-.64v-4.9A.64.64,0,0,1,230.16,175.9Z"/><path class="cls-14" d="M230.16,175.9h28.59a0,0,0,0,1,0,0v6.18a0,0,0,0,1,0,0H230.16a.64.64,0,0,1-.64-.64v-4.9A.64.64,0,0,1,230.16,175.9Z"/><path class="cls-9" d="M259.39,230.85h7.27a0,0,0,0,1,0,0V237a0,0,0,0,1,0,0h-7.27a.64.64,0,0,1-.64-.64v-4.89A.64.64,0,0,1,259.39,230.85Z" transform="translate(525.41 412.93) rotate(180)"/><path class="cls-11" d="M259.92,231.74h5.9a.84.84,0,0,1,.84.84v2.73a.84.84,0,0,1-.84.84h-5.9a0,0,0,0,1,0,0v-4.41A0,0,0,0,1,259.92,231.74Z" transform="translate(526.58 412.93) rotate(180)"/><path class="cls-9" d="M227.78,171.8h28.59a0,0,0,0,1,0,0v4.1a0,0,0,0,1,0,0H227.78a.64.64,0,0,1-.64-.64v-2.82A.64.64,0,0,1,227.78,171.8Z"/><path class="cls-15" d="M227.78,171.8h28.59a0,0,0,0,1,0,0v4.1a0,0,0,0,1,0,0H227.78a.64.64,0,0,1-.64-.64v-2.82A.64.64,0,0,1,227.78,171.8Z"/><path class="cls-10" d="M227.78,171.8h28.59a0,0,0,0,1,0,0v4.1a0,0,0,0,1,0,0H227.78a.64.64,0,0,1-.64-.64v-2.82A.64.64,0,0,1,227.78,171.8Z"/><path class="cls-9" d="M257,226.76h7.27a0,0,0,0,1,0,0v4.1a0,0,0,0,1,0,0H257a.64.64,0,0,1-.64-.64V227.4A.64.64,0,0,1,257,226.76Z" transform="translate(520.65 402.65) rotate(180)"/><path class="cls-15" d="M257,226.76h7.27a0,0,0,0,1,0,0v4.1a0,0,0,0,1,0,0H257a.64.64,0,0,1-.64-.64V227.4A.64.64,0,0,1,257,226.76Z" transform="translate(520.65 402.65) rotate(180)"/><path class="cls-11" d="M257.54,227.64h5.9a.84.84,0,0,1,.84.84v.65a.84.84,0,0,1-.84.84h-5.9a0,0,0,0,1,0,0v-2.32A0,0,0,0,1,257.54,227.64Z" transform="translate(521.82 402.65) rotate(180)"/></g><g id="Character"><polygon class="cls-17" points="106.75 281.54 100.15 278.24 105.51 261.84 112.11 265.15 106.75 281.54"/><path class="cls-12" d="M100.73,330.61l8.1,1.7a.54.54,0,0,1,.44.61l-1,6.49a1.3,1.3,0,0,1-1.53,1c-2.81-.64-4.13-1.09-7.69-1.84-2.19-.46-9.76-2-12.68-3s-1.85-3.87-.52-3.7c6,.74,11.13.07,13.5-1.1A2.1,2.1,0,0,1,100.73,330.61Z" transform="translate(0 -54.95)"/><polygon class="cls-10" points="112.11 265.15 105.51 261.84 102.44 271.25 109.35 273.61 112.11 265.15"/><path class="cls-9" d="M179,237.43s-56.59,5.48-61.32,26.09c-6.81,29.61-16,57.75-16,57.75l12.66,2.23c1.94-8.43,16.37-38,23.14-57.93,15.33-2.29,56.31,6.41,62.45-5.25a44.31,44.31,0,0,0,4.89-19.11Z" transform="translate(0 -54.95)"/><path class="cls-14" d="M179,237.43s-56.59,5.48-61.32,26.09c-6.81,29.61-16,57.75-16,57.75l12.66,2.23c1.94-8.43,16.37-38,23.14-57.93,15.33-2.29,56.31,6.41,62.45-5.25a44.31,44.31,0,0,0,4.89-19.11Z" transform="translate(0 -54.95)"/><polygon class="cls-9" points="115.09 273.03 100.29 267.67 101 261.72 116.49 265.8 115.09 273.03"/><path class="cls-9" d="M97.91,331.33a8.61,8.61,0,0,0,2,.14.18.18,0,0,0,.16-.1.19.19,0,0,0,0-.18c-.2-.21-2-2-2.9-1.88a.67.67,0,0,0-.5.4.94.94,0,0,0,0,1A2,2,0,0,0,97.91,331.33Zm1.56-.2c-1.34,0-2.28-.25-2.55-.66a.6.6,0,0,1,0-.62.29.29,0,0,1,.23-.2C97.68,329.56,98.75,330.42,99.47,331.13Z" transform="translate(0 -54.95)"/><path class="cls-9" d="M99.85,331.47h.08a.17.17,0,0,0,.11-.12c0-.08.63-2.13,0-3a.85.85,0,0,0-.67-.38.64.64,0,0,0-.71.38c-.33.75.43,2.48,1.05,3.06Zm-.38-3.13a.51.51,0,0,1,.33.22,3.82,3.82,0,0,1,0,2.39A3.44,3.44,0,0,1,99,328.5c0-.09.12-.19.37-.17Z" transform="translate(0 -54.95)"/><path class="cls-17" d="M185.1,185.62c-.34,3.72-.88,7.22-1.46,10.81s-1.34,7.13-2.27,10.7a76.32,76.32,0,0,1-3.52,10.73,35.07,35.07,0,0,1-2.81,5.47,19.69,19.69,0,0,1-2.11,2.79,13.77,13.77,0,0,1-3.27,2.7l-.42.24-.23.08a11.49,11.49,0,0,1-6.73.22,20.47,20.47,0,0,1-4.72-1.86,30.8,30.8,0,0,1-3.86-2.5c-.6-.45-1.16-.94-1.72-1.43a21.7,21.7,0,0,1-1.66-1.56l3.14-4.55c1.17.38,2.43.87,3.64,1.23s2.41.75,3.56,1a15,15,0,0,0,3.14.44c.89,0,1.52-.24,1.36-.31l-.65.32a8.05,8.05,0,0,0,1.65-2.22,29.25,29.25,0,0,0,1.79-4,81.14,81.14,0,0,0,2.67-9.4c.73-3.27,1.36-6.6,1.91-10s1-6.8,1.46-10.06Z" transform="translate(0 -54.95)"/><path class="cls-12" d="M175.22,180.14c-6.88,6-6.5,20.6-6.5,20.6l18.18,6.56c3.85-6,5.74-17.46,5.4-22.38C191.77,177.36,183.38,173,175.22,180.14Z" transform="translate(0 -54.95)"/><path class="cls-10" d="M192.31,185.2c-3.27-1.57-7.74-1.07-12.16,2.79-4,3.49-5.55,9.92-6.13,14.67l12.88,4.64C190.68,201.4,192.57,190.25,192.31,185.2Z" transform="translate(0 -54.95)"/><polygon class="cls-17" points="80.67 264.07 78.47 257.03 93.77 248.73 95.96 255.77 80.67 264.07"/><path class="cls-12" d="M79,311.32l5.54,6.15a.52.52,0,0,1,0,.74l-4.6,4.69a1.3,1.3,0,0,1-1.84-.08c-1.89-2.17-2.69-3.31-5.13-6-1.5-1.66-6.77-7.15-8.84-9.45s.26-4.28,1.34-3.49c4.86,3.53,9.73,6.36,12.34,6.81A2.14,2.14,0,0,1,79,311.32Z" transform="translate(0 -54.95)"/><polygon class="cls-10" points="95.96 255.77 93.77 248.73 82.61 254.79 87.26 260.5 95.96 255.77"/><path class="cls-9" d="M191.8,239.5S153,244.7,145,255.32c-13.93,18.49-58,49-58,49l4,12.89s60.06-25.33,70.74-46.51c19.62-1.51,51.54,4.95,56.57-7.23,3.35-8.11,1.71-20.22,1.71-20.22Z" transform="translate(0 -54.95)"/><path class="cls-10" d="M191.8,239.5S153,244.7,145,255.32c-13.93,18.49-58,49-58,49l4,12.89s60.06-25.33,70.74-46.51c19.62-1.51,51.54,4.95,56.57-7.23,3.35-8.11,1.71-20.22,1.71-20.22Z" transform="translate(0 -54.95)"/><polygon class="cls-9" points="91.78 264.13 83.24 250.35 88.7 245.87 96.92 260.69 91.78 264.13"/><path class="cls-9" d="M76.24,310.24a9.35,9.35,0,0,0,1.51,1.28.17.17,0,0,0,.19,0,.16.16,0,0,0,.08-.17c0-.28-.37-2.79-1.24-3.22a.65.65,0,0,0-.63,0,1,1,0,0,0-.55.78A2,2,0,0,0,76.24,310.24Zm1.38.77c-1.08-.81-1.7-1.55-1.67-2a.62.62,0,0,1,.37-.5.31.31,0,0,1,.31,0C77.09,308.68,77.45,310,77.62,311Z" transform="translate(0 -54.95)"/><path class="cls-9" d="M77.72,311.5l.07,0a.13.13,0,0,0,.16,0c.08,0,1.76-1.35,1.8-2.38a.92.92,0,0,0-.31-.71.68.68,0,0,0-.81-.11c-.71.41-1.11,2.26-.95,3.1A.2.2,0,0,0,77.72,311.5Zm1.55-2.75a.51.51,0,0,1,.13.37c0,.62-.88,1.48-1.41,1.93a3.47,3.47,0,0,1,.81-2.43.33.33,0,0,1,.41.07Z" transform="translate(0 -54.95)"/><path class="cls-17" d="M155.39,218.84l-5.88-5.68-4.08,8s7.14,3.91,8.93,2.12Z" transform="translate(0 -54.95)"/><polygon class="cls-17" points="141.7 158.15 140.64 164.71 145.43 166.15 149.51 158.21 141.7 158.15"/><path class="cls-12" d="M219.62,175.2c-.74-1.95-2.06-3.88-4.15-3.85-.43,0-3,0-3.46.06-2.4.06-5.4.22-8.3.59a145.81,145.81,0,0,0-16.51,2.87c-2.5.68-4.9,1.53-6.82,2.26l-.07,0a5.37,5.37,0,0,0-3.39,5.53c1,10.57,3.48,39.92,2,55.12l41,5.4c2.46-7.82,3.44-25.73,3.46-40.33C223.46,194.08,222.67,183.17,219.62,175.2Z" transform="translate(0 -54.95)"/><path class="cls-10" d="M223.24,195.34l-.81.06-5.2,4.5-5.38,18.53-18.48,3.23c4.49,2.27,17.55,2.73,25.27.68a6.15,6.15,0,0,0,4.52-5.72c.19-4.63.28-9.33.28-13.74C223.44,200.49,223.39,197.94,223.24,195.34Z" transform="translate(0 -54.95)"/><path class="cls-9" d="M156.89,201.39s3.61-2,10.38-.06A17.46,17.46,0,0,0,178.8,201l2.53,4.74-23,.8Z" transform="translate(0 -54.95)"/><path class="cls-18" d="M156.89,201.39s3.61-2,10.38-.06A17.46,17.46,0,0,0,178.8,201l2.53,4.74-23,.8Z" transform="translate(0 -54.95)"/><path class="cls-9" d="M156.89,201.39s-.15-1.45-4.52-1.6c-8.79-.29-12.5-2.54-12.5-2.54l-.36,2.27,18.81,7Z" transform="translate(0 -54.95)"/><path class="cls-18" d="M156.89,201.39s-.15-1.45-4.52-1.6c-8.79-.29-12.5-2.54-12.5-2.54l-.36,2.27,18.81,7Z" transform="translate(0 -54.95)"/><path class="cls-9" d="M164.28,235.13,148,230.49a1.31,1.31,0,0,1-.86-.87l-8.33-30.16a.79.79,0,0,1,1-1l15.51,4.43Z" transform="translate(0 -54.95)"/><path class="cls-9" d="M189.61,236.54l-21.4-1.19-8.91-32.26L181,204.3a1.21,1.21,0,0,1,1.06.88l8.38,30.32A.77.77,0,0,1,189.61,236.54Z" transform="translate(0 -54.95)"/><polygon class="cls-9" points="164.28 180.17 168.21 180.39 159.3 148.14 155.37 147.92 164.28 180.17"/><polygon class="cls-14" points="164.28 180.17 168.21 180.39 159.3 148.14 155.37 147.92 164.28 180.17"/><path class="cls-17" d="M221.63,182.53c.21,1.44.35,2.66.45,4s.17,2.58.23,3.88c.09,2.58.07,5.17-.09,7.77a59.5,59.5,0,0,1-2.89,15.69c0,.09-.18.52-.3.84a10.3,10.3,0,0,1-.47.94,9.54,9.54,0,0,1-1.12,1.57,10.65,10.65,0,0,1-2.47,2.05,18,18,0,0,1-4.54,1.92,38.28,38.28,0,0,1-8.12,1.23,74.74,74.74,0,0,1-15.28-.85l.26-5.53a139.57,139.57,0,0,0,14-2,35.18,35.18,0,0,0,6.2-1.77,8.37,8.37,0,0,0,2.08-1.15c.21-.18.31-.33.29-.35s-.05,0-.08.07a1,1,0,0,0-.08.11s-.06.18,0,0a57.06,57.06,0,0,0,1.1-6.45c.21-2.22.35-4.47.39-6.75s0-4.58-.1-6.88c-.05-1.15-.11-2.3-.2-3.44l-.14-1.71-.15-1.6Z" transform="translate(0 -54.95)"/><path class="cls-12" d="M221.63,173.69c-4.86-3.71-11.57-3.6-14.32,6.17-1.8,6.4-.84,19.28-.84,19.28l19.41-.39C228.05,188.51,226.55,177.45,221.63,173.69Z" transform="translate(0 -54.95)"/><path class="cls-17" d="M201.8,155.68l-4.08,4.79L192.16,167a19.82,19.82,0,0,1,.87,2.56c1,3.46-2.15,4.16-5,5.91,0,0-4.27,5.65,6,4s11.73-7,11.73-7C201.15,169.34,201.48,161.66,201.8,155.68Z" transform="translate(0 -54.95)"/><path class="cls-9" d="M197.12,178.8a25.65,25.65,0,0,1-3.15.69,17.18,17.18,0,0,1-4.16.25l-.24,1.19c-.37.26-.46,1.65,1.88,3.3C193.92,183.72,197.75,181.61,197.12,178.8Z" transform="translate(0 -54.95)"/><path class="cls-12" d="M203.94,170.75s-1.94,5.19-9,7.09c1,2.75-.64,5.88-.64,5.88s9.85-3.37,11.9-6.74,1.17-5.34,1.17-5.34A8.51,8.51,0,0,0,203.94,170.75Z" transform="translate(0 -54.95)"/><path class="cls-12" d="M190,183.49s.07-4.3,1.33-5.74c-.66-1.94-.31-3,.71-4.69a8.49,8.49,0,0,0-5.31,3.46C185.38,178.77,186.32,183.55,190,183.49Z" transform="translate(0 -54.95)"/><path class="cls-10" d="M192.16,167a19.82,19.82,0,0,1,.87,2.56c2.34-.91,5.13-4.06,5-6.6a11.54,11.54,0,0,0-.35-2.49Z" transform="translate(0 -54.95)"/><path class="cls-12" d="M178.61,144.2c-1.93,4.05-.27,13.67,8.88,9.84S181.75,137.63,178.61,144.2Z" transform="translate(0 -54.95)"/><path class="cls-12" d="M198.69,152.61c-.84,1.75-.12,5.91,3.83,4.26S200,149.77,198.69,152.61Z" transform="translate(0 -54.95)"/><path class="cls-12" d="M199.8,155.41c-1.28,1.46-1.71,5.66,2.55,5.13S201.87,153,199.8,155.41Z" transform="translate(0 -54.95)"/><path class="cls-17" d="M200.8,144.49c1.66,7.75,3,12.18.31,17.29a10.3,10.3,0,0,1-18.24.12c-3.52-6.32-5.65-17.93.87-23.29A10.43,10.43,0,0,1,200.8,144.49Z" transform="translate(0 -54.95)"/><path class="cls-12" d="M199.42,135.48c-1.58-6.88-10.8-4.49-15.5-.33s-5.91,7.43-9.87,9.89c7.31,1,17.66-1.9,19.6-4.36a7.72,7.72,0,0,0,3.16,6.26,51,51,0,0,0,0,6.47l3.34-1.7,3.89-1.56C209.78,140.45,206.39,134.46,199.42,135.48Z" transform="translate(0 -54.95)"/><path class="cls-5" d="M191.09,149.82a.26.26,0,0,1-.26-.22.26.26,0,0,1,.21-.31l10.84-1.85a.27.27,0,0,1,.31.22.26.26,0,0,1-.22.3l-10.84,1.85Z" transform="translate(0 -54.95)"/><path class="cls-5" d="M189.64,156.25h0c-2,0-4.2-2.15-4.91-4.76a4.43,4.43,0,0,1,.45-3.89,2.41,2.41,0,0,1,2-1h0c2,0,4.21,2.15,4.92,4.76h0a4.49,4.49,0,0,1-.46,3.9A2.4,2.4,0,0,1,189.64,156.25Zm-2.51-9.08a1.9,1.9,0,0,0-1.55.75,4,4,0,0,0-.36,3.43c.65,2.4,2.63,4.36,4.4,4.37a1.81,1.81,0,0,0,1.57-.75,4,4,0,0,0,.37-3.43c-.65-2.4-2.63-4.36-4.41-4.37Z" transform="translate(0 -54.95)"/><path class="cls-5" d="M183.45,153a.32.32,0,0,1-.14,0,.26.26,0,0,1-.09-.37,2,2,0,0,1,2-.73.28.28,0,0,1,.2.32.27.27,0,0,1-.32.2s-1-.22-1.47.49A.25.25,0,0,1,183.45,153Z" transform="translate(0 -54.95)"/><path class="cls-17" d="M205.45,150.42a8.37,8.37,0,0,1-3.29,4.91c-2.17,1.48-3.87-.36-3.78-2.94.08-2.32,1.3-5.88,3.73-6.33S206,148,205.45,150.42Z" transform="translate(0 -54.95)"/><path class="cls-12" d="M188.44,151c.29.57.22,1.2-.15,1.4s-.9-.1-1.19-.68-.21-1.2.15-1.4S188.15,150.42,188.44,151Z" transform="translate(0 -54.95)"/><path class="cls-12" d="M182.1,153.6c.26.59.16,1.21-.22,1.39s-.9-.15-1.15-.74-.15-1.22.23-1.39S181.85,153,182.1,153.6Z" transform="translate(0 -54.95)"/><path class="cls-12" d="M178.9,150.07a.38.38,0,0,0,.26-.25,3.15,3.15,0,0,1,1.88-2,.38.38,0,0,0,.25-.47.36.36,0,0,0-.46-.25h0a3.85,3.85,0,0,0-2.39,2.54.36.36,0,0,0,.24.47A.34.34,0,0,0,178.9,150.07Z" transform="translate(0 -54.95)"/><path class="cls-5" d="M181.93,158.31h0c-1.82,0-3.83-2-4.48-4.34a4.08,4.08,0,0,1,.42-3.56,2.19,2.19,0,0,1,1.8-.87h0c1.83,0,3.84,2,4.49,4.34h0a4.08,4.08,0,0,1-.42,3.55A2.19,2.19,0,0,1,181.93,158.31Zm-2.28-8.25a1.67,1.67,0,0,0-1.38.68,3.56,3.56,0,0,0-.33,3.09c.59,2.17,2.37,3.94,4,3.95h0a1.69,1.69,0,0,0,1.39-.67,3.6,3.6,0,0,0,.33-3.09h0c-.59-2.17-2.38-3.94-4-4Z" transform="translate(0 -54.95)"/><path class="cls-19" d="M184.2,152.68a20.37,20.37,0,0,1-.88,5.36,3.12,3.12,0,0,0,2.6-.49Z" transform="translate(0 -54.95)"/><path class="cls-12" d="M187.22,159.85a5.53,5.53,0,0,0,3.38-2.72.19.19,0,0,0-.1-.25.2.2,0,0,0-.25.09,5.27,5.27,0,0,1-3.82,2.68.2.2,0,0,0-.16.22.19.19,0,0,0,.22.15A5.2,5.2,0,0,0,187.22,159.85Z" transform="translate(0 -54.95)"/><path class="cls-12" d="M189.36,146.32a.33.33,0,0,0,.13-.13.38.38,0,0,0-.13-.52,3.64,3.64,0,0,0-3.4-.21.37.37,0,0,0-.16.51.38.38,0,0,0,.51.16,2.88,2.88,0,0,1,2.67.19A.35.35,0,0,0,189.36,146.32Z" transform="translate(0 -54.95)"/><path class="cls-17" d="M189.27,216.35,183,213.69l.21,8s6.21,2.51,7.24-.8Z" transform="translate(0 -54.95)"/><polygon class="cls-17" points="175.21 160.52 176.59 166.22 183.22 166.71 183.01 158.74 175.21 160.52"/></g></svg>