<svg id="Layer_1" data-name="Layer 1" xmlns="http://www.w3.org/2000/svg" xmlns:xlink="http://www.w3.org/1999/xlink" viewBox="0 0 3710 3710"><defs><style>.cls-1{fill:#fff;}.cls-2{fill:url(#linear-gradient);}.cls-3{fill:#b9ceff;}.cls-4{fill:url(#linear-gradient-2);}.cls-5{fill:url(#linear-gradient-3);}.cls-6{fill:url(#linear-gradient-4);}.cls-7{fill:url(#linear-gradient-5);}.cls-8{fill:url(#linear-gradient-6);}.cls-9{fill:#91b3fa;}.cls-10{opacity:0.3;}.cls-11{fill:url(#linear-gradient-7);}.cls-12{fill:url(#linear-gradient-8);}.cls-13{fill:url(#linear-gradient-9);}.cls-14{fill:url(#linear-gradient-10);}.cls-15{fill:url(#linear-gradient-11);}.cls-16{fill:url(#linear-gradient-12);}.cls-17{fill:url(#linear-gradient-13);}.cls-18{fill:url(#linear-gradient-14);}.cls-19{fill:url(#linear-gradient-15);}.cls-20{fill:url(#linear-gradient-16);}.cls-21{fill:url(#linear-gradient-17);}.cls-22{fill:url(#linear-gradient-18);}.cls-23{fill:url(#linear-gradient-19);}.cls-24{fill:url(#linear-gradient-20);}.cls-25{fill:url(#linear-gradient-21);}.cls-26{fill:url(#linear-gradient-22);}.cls-27{fill:url(#linear-gradient-23);}.cls-28{fill:url(#linear-gradient-24);}.cls-29{fill:url(#linear-gradient-25);}.cls-30{fill:url(#linear-gradient-26);}.cls-31{fill:url(#linear-gradient-27);}.cls-32{fill:url(#linear-gradient-28);}.cls-33{fill:url(#linear-gradient-29);}.cls-34{fill:url(#linear-gradient-30);}.cls-35{fill:url(#linear-gradient-31);}.cls-36{fill:url(#linear-gradient-32);}.cls-37{fill:url(#linear-gradient-33);}.cls-38{fill:url(#linear-gradient-34);}.cls-39{fill:url(#linear-gradient-35);}.cls-40{fill:url(#linear-gradient-36);}.cls-41{fill:url(#linear-gradient-37);}.cls-42{fill:#7d97f4;}.cls-43{fill:url(#linear-gradient-38);}.cls-44{fill:url(#linear-gradient-39);}.cls-45{fill:url(#linear-gradient-40);}.cls-46{fill:url(#linear-gradient-41);}.cls-47{fill:url(#linear-gradient-42);}.cls-48{fill:url(#linear-gradient-43);}.cls-49{fill:url(#linear-gradient-44);}.cls-50{fill:url(#linear-gradient-45);}.cls-51{fill:url(#linear-gradient-46);}.cls-52{fill:url(#linear-gradient-47);}.cls-53{fill:url(#linear-gradient-48);}.cls-54{fill:url(#linear-gradient-49);}.cls-55{fill:url(#linear-gradient-50);}.cls-56{fill:url(#linear-gradient-51);}.cls-57{fill:url(#linear-gradient-52);}.cls-58{fill:url(#linear-gradient-53);}.cls-59{fill:url(#linear-gradient-54);}.cls-60{fill:url(#linear-gradient-55);}</style><linearGradient id="linear-gradient" x1="3588.98" y1="-357.46" x2="1108.55" y2="2723.08" gradientTransform="matrix(1, 0, 0, -1, 0, 3707.89)" gradientUnits="userSpaceOnUse"><stop offset="0" stop-color="#dae3fe"/><stop offset="1" stop-color="#e9effd"/></linearGradient><linearGradient id="linear-gradient-2" x1="2459.44" y1="2943.48" x2="395.01" y2="202.61" gradientTransform="matrix(1, 0, 0, -1, 0, 3707.89)" gradientUnits="userSpaceOnUse"><stop offset="0" stop-color="#145bff"/><stop offset="1" stop-color="#6393ff"/></linearGradient><linearGradient id="linear-gradient-3" x1="2459.44" y1="2943.48" x2="395.02" y2="202.62" gradientTransform="matrix(0.71, 0.71, 0.71, -0.71, -845.08, 1982.09)" xlink:href="#linear-gradient-2"/><linearGradient id="linear-gradient-4" x1="1847.88" y1="3358.65" x2="1732.97" y2="2452.83" gradientTransform="matrix(0.71, 0.71, 0.71, -0.71, -845.08, 1982.09)" gradientUnits="userSpaceOnUse"><stop offset="0" stop-color="#ff928e"/><stop offset="1" stop-color="#e92c30"/></linearGradient><linearGradient id="linear-gradient-5" x1="3858.54" y1="-1514.5" x2="3600.48" y2="-2562.89" gradientTransform="matrix(0, -1, -1, 0, -212.13, 4867.37)" gradientUnits="userSpaceOnUse"><stop offset="0" stop-color="#09005d"/><stop offset="1" stop-color="#1a0f91"/></linearGradient><linearGradient id="linear-gradient-6" x1="3638.57" y1="-1734.89" x2="3559.71" y2="-2580.81" gradientTransform="matrix(-0.71, -0.71, -0.71, 0.71, 3074.3, 5558.55)" xlink:href="#linear-gradient-5"/><linearGradient id="linear-gradient-7" x1="14733.41" y1="646.08" x2="14203.81" y2="70.02" gradientTransform="matrix(1, 0.01, 0.01, -1, -13757.05, 3629.64)" xlink:href="#linear-gradient-5"/><linearGradient id="linear-gradient-8" x1="14560.67" y1="602.85" x2="14607.72" y2="602.85" gradientTransform="matrix(1, 0.01, 0.01, -1, -13757.05, 3629.64)" gradientUnits="userSpaceOnUse"><stop offset="0" stop-color="#febbba"/><stop offset="1" stop-color="#ff928e"/></linearGradient><linearGradient id="linear-gradient-9" x1="14775.19" y1="1297.7" x2="14324.52" y2="686.87" gradientTransform="matrix(1, 0.01, 0.01, -1, -13757.05, 3629.64)" xlink:href="#linear-gradient-5"/><linearGradient id="linear-gradient-10" x1="14614.61" y1="755.32" x2="14084.99" y2="179.24" gradientTransform="matrix(1, 0.01, 0.01, -1, -13757.05, 3629.64)" xlink:href="#linear-gradient-5"/><linearGradient id="linear-gradient-11" x1="14391.13" y1="605.27" x2="14431.74" y2="605.27" xlink:href="#linear-gradient-8"/><linearGradient id="linear-gradient-12" x1="14694.84" y1="1356.98" x2="14244.17" y2="746.16" gradientTransform="matrix(1, 0.01, 0.01, -1, -13757.05, 3629.64)" xlink:href="#linear-gradient-5"/><linearGradient id="linear-gradient-13" x1="15307.87" y1="11981.09" x2="14827.92" y2="11626.2" gradientTransform="translate(1921.93 3707.89) rotate(180)" xlink:href="#linear-gradient-4"/><linearGradient id="linear-gradient-14" x1="14754.3" y1="1830.14" x2="14994.67" y2="1830.14" xlink:href="#linear-gradient-8"/><linearGradient id="linear-gradient-15" x1="-1379.51" y1="1871.65" x2="-1218.24" y2="1504.72" gradientTransform="translate(-197.7 3760.16) rotate(-179.43)" xlink:href="#linear-gradient-8"/><linearGradient id="linear-gradient-16" x1="14994.43" y1="1993.24" x2="15061.72" y2="2096.7" xlink:href="#linear-gradient-8"/><linearGradient id="linear-gradient-17" x1="15341.66" y1="11935.4" x2="14861.71" y2="11580.5" gradientTransform="translate(1921.93 3707.89) rotate(180)" xlink:href="#linear-gradient-4"/><linearGradient id="linear-gradient-18" x1="14228.38" y1="1489.78" x2="14532.52" y2="1489.78" xlink:href="#linear-gradient-8"/><linearGradient id="linear-gradient-19" x1="708.83" y1="1601.82" x2="823.75" y2="1824.89" gradientTransform="matrix(1, 0, 0, -1, 0, 3707.89)" xlink:href="#linear-gradient-8"/><linearGradient id="linear-gradient-20" x1="6667.56" y1="-3892.95" x2="6622.62" y2="-3744.73" gradientTransform="matrix(0.75, -0.66, -0.66, -0.75, -6711.6, 3348.63)" xlink:href="#linear-gradient-8"/><linearGradient id="linear-gradient-21" x1="6628.6" y1="-3631.95" x2="6666.19" y2="-3846.35" gradientTransform="matrix(0.75, -0.66, -0.66, -0.75, -6711.6, 3348.63)" xlink:href="#linear-gradient-5"/><linearGradient id="linear-gradient-22" x1="6621.62" y1="-3892.26" x2="6581.19" y2="-3758.91" gradientTransform="matrix(0.75, -0.66, -0.66, -0.75, -6711.6, 3348.63)" xlink:href="#linear-gradient-8"/><linearGradient id="linear-gradient-23" x1="14338.33" y1="1627.12" x2="14506.16" y2="927.84" gradientTransform="matrix(1, 0, 0, -1, -13467.39, 3707.89)" xlink:href="#linear-gradient-5"/><linearGradient id="linear-gradient-24" x1="14223.32" y1="1442.14" x2="14318.4" y2="1442.14" gradientTransform="matrix(1, 0, 0, -1, -13467.39, 3707.89)" xlink:href="#linear-gradient-8"/><linearGradient id="linear-gradient-25" x1="8729.97" y1="1816.51" x2="8425.85" y2="1442.64" gradientTransform="translate(11089.97 4587.4) rotate(-173.09)" xlink:href="#linear-gradient-8"/><linearGradient id="linear-gradient-26" x1="-5415.39" y1="821.77" x2="-5614.82" y2="584.8" gradientTransform="matrix(0.96, 0.28, 0.28, -0.96, 8329.47, 3980.1)" xlink:href="#linear-gradient-5"/><linearGradient id="linear-gradient-27" x1="3286.96" y1="2000.66" x2="3101.06" y2="1713.37" gradientTransform="matrix(1, 0, 0, -1, 0, 3707.89)" xlink:href="#linear-gradient-4"/><linearGradient id="linear-gradient-28" x1="-5704.14" y1="403.73" x2="-5687.89" y2="519.09" gradientTransform="matrix(0.96, 0.28, 0.28, -0.96, 8329.47, 3980.1)" xlink:href="#linear-gradient-8"/><linearGradient id="linear-gradient-29" x1="-5778.33" y1="650.85" x2="-5626.41" y2="476.18" gradientTransform="matrix(0.96, 0.28, 0.28, -0.96, 8329.47, 3980.1)" xlink:href="#linear-gradient-8"/><linearGradient id="linear-gradient-30" x1="-5510.89" y1="902.14" x2="-5710.32" y2="665.17" gradientTransform="matrix(0.96, 0.28, 0.28, -0.96, 8329.47, 3980.1)" xlink:href="#linear-gradient-5"/><linearGradient id="linear-gradient-31" x1="-5740.37" y1="683.86" x2="-5588.46" y2="509.2" gradientTransform="matrix(0.96, 0.28, 0.28, -0.96, 8329.47, 3980.1)" xlink:href="#linear-gradient-8"/><linearGradient id="linear-gradient-32" x1="7871.49" y1="382.34" x2="8233.93" y2="1022.14" gradientTransform="translate(11099.67 3780.4) rotate(-179.43)" xlink:href="#linear-gradient-8"/><linearGradient id="linear-gradient-33" x1="7950.54" y1="606.08" x2="8056.46" y2="606.08" gradientTransform="translate(11099.67 3780.4) rotate(-179.43)" xlink:href="#linear-gradient-5"/><linearGradient id="linear-gradient-34" x1="8282.85" y1="853.8" x2="7740.8" y2="680.47" gradientTransform="translate(11099.67 3780.4) rotate(-179.43)" xlink:href="#linear-gradient-8"/><linearGradient id="linear-gradient-35" x1="8048.76" y1="586.92" x2="8174.96" y2="586.92" gradientTransform="translate(11099.67 3780.4) rotate(-179.43)" xlink:href="#linear-gradient-5"/><linearGradient id="linear-gradient-36" x1="3434.76" y1="1539.89" x2="3130.56" y2="1306.67" gradientTransform="matrix(1, 0, 0, -1, 0, 3707.89)" xlink:href="#linear-gradient-5"/><linearGradient id="linear-gradient-37" x1="8109.19" y1="1276.2" x2="8710.44" y2="1963.94" gradientTransform="translate(11089.97 4587.4) rotate(-173.09)" xlink:href="#linear-gradient-8"/><linearGradient id="linear-gradient-38" x1="4028.8" y1="437.3" x2="3968.42" y2="318.55" gradientTransform="matrix(-0.98, -0.22, 0.22, -0.98, 5967.59, 4293.46)" xlink:href="#linear-gradient-5"/><linearGradient id="linear-gradient-39" x1="3927.82" y1="394.13" x2="3987.98" y2="394.13" gradientTransform="matrix(-0.98, -0.22, 0.22, -0.98, 5967.59, 4293.46)" xlink:href="#linear-gradient-8"/><linearGradient id="linear-gradient-40" x1="3832.83" y1="550.55" x2="4088.47" y2="908.85" gradientTransform="matrix(-0.98, -0.22, 0.22, -0.98, 5967.59, 4293.46)" xlink:href="#linear-gradient-5"/><linearGradient id="linear-gradient-41" x1="3994.65" y1="320.1" x2="3785.3" y2="46.33" gradientTransform="matrix(-0.98, -0.22, 0.22, -0.98, 5967.59, 4293.46)" xlink:href="#linear-gradient-5"/><linearGradient id="linear-gradient-42" x1="3902.84" y1="262.47" x2="4064.61" y2="262.47" gradientTransform="matrix(-0.98, -0.22, 0.22, -0.98, 5967.59, 4293.46)" xlink:href="#linear-gradient-2"/><linearGradient id="linear-gradient-43" x1="3884.32" y1="338.9" x2="3940.78" y2="338.9" gradientTransform="matrix(-0.98, -0.22, 0.22, -0.98, 5967.59, 4293.46)" xlink:href="#linear-gradient-8"/><linearGradient id="linear-gradient-44" x1="3742.21" y1="363.93" x2="3756.3" y2="843" gradientTransform="matrix(-0.98, -0.22, 0.22, -0.98, 5967.59, 4293.46)" xlink:href="#linear-gradient-5"/><linearGradient id="linear-gradient-45" x1="2558.56" y1="1515.11" x2="2016.11" y2="1094.33" gradientTransform="matrix(1, 0, 0, -1, 0, 3707.89)" xlink:href="#linear-gradient-4"/><linearGradient id="linear-gradient-46" x1="4087.52" y1="929.94" x2="4284.47" y2="929.94" gradientTransform="matrix(-0.98, -0.22, 0.22, -0.98, 5967.59, 4293.46)" xlink:href="#linear-gradient-8"/><linearGradient id="linear-gradient-47" x1="1934.91" y1="930.9" x2="2452.02" y2="1250.29" gradientTransform="matrix(1, 0, 0, -1, 0, 3707.89)" xlink:href="#linear-gradient-4"/><linearGradient id="linear-gradient-48" x1="3868.89" y1="1276.52" x2="3999.56" y2="1276.52" gradientTransform="matrix(-0.98, -0.22, 0.22, -0.98, 5967.59, 4293.46)" xlink:href="#linear-gradient-8"/><linearGradient id="linear-gradient-49" x1="1966.17" y1="880.31" x2="2483.27" y2="1199.69" gradientTransform="matrix(1, 0, 0, -1, 0, 3707.89)" xlink:href="#linear-gradient-4"/><linearGradient id="linear-gradient-50" x1="3732.61" y1="1297.97" x2="3297.72" y2="542.27" gradientTransform="matrix(-1, 0.1, -0.1, -1, 6436, 3446.77)" xlink:href="#linear-gradient-8"/><linearGradient id="linear-gradient-51" x1="4340.15" y1="2074.41" x2="4154.76" y2="1829.16" gradientTransform="translate(3640.19 6673.44) rotate(-130.54)" xlink:href="#linear-gradient-8"/><linearGradient id="linear-gradient-52" x1="4219.73" y1="2086.57" x2="4415.02" y2="2086.57" gradientTransform="translate(3640.19 6673.44) rotate(-130.54)" xlink:href="#linear-gradient-5"/><linearGradient id="linear-gradient-53" x1="4106.98" y1="1905.5" x2="4238" y2="2039.93" gradientTransform="translate(3640.19 6673.44) rotate(-130.54)" xlink:href="#linear-gradient-8"/><linearGradient id="linear-gradient-54" x1="12866.45" y1="610.83" x2="12610.27" y2="540.62" gradientTransform="matrix(1, -0.05, -0.05, -1, -10414.37, 3726.96)" xlink:href="#linear-gradient-5"/><linearGradient id="linear-gradient-55" x1="12546.99" y1="1391.98" x2="12365.23" y2="1199.87" gradientTransform="matrix(1, 0, 0, -1, -10487.12, 3707.89)" xlink:href="#linear-gradient-5"/></defs><g id="Background"><rect class="cls-1" width="3710" height="3710"/></g><g id="Illustration"><path class="cls-2" d="M2906.61,2850.49c-57,60-110.88,98.66-153.48,129.22-500.66,359.23-1093.08,254.52-1219,228.95-185.91-37.77-545.3-110.76-805.13-416.31C335.91,2330.07,397.12,1601.76,702,1121c55.78-87.94,350.39-576,949.19-654.3,362.39-47.37,784.81,48.17,1090.72,304.46C3384.08,1309.14,3338.36,2396,2906.61,2850.49Z" transform="translate(0 0)"/><circle class="cls-3" cx="1660.69" cy="1824.89" r="1074.29"/><circle class="cls-4" cx="1660.69" cy="1824.89" r="916.86"/><path class="cls-1" d="M1660.68,2787.68c-530.87,0-962.78-431.9-962.78-962.79s431.91-962.78,962.78-962.78,962.79,431.9,962.79,962.78S2191.56,2787.68,1660.68,2787.68Zm0-1879.65c-505.56,0-916.85,411.3-916.85,916.86s411.29,916.87,916.85,916.87,916.86-411.3,916.86-916.87S2166.24,908,1660.68,908Z" transform="translate(0 0)"/><circle class="cls-5" cx="1660.69" cy="1824.89" r="558.96" transform="translate(-803.99 1708.78) rotate(-45)"/><path class="cls-1" d="M1660.68,2429.78c-333.53,0-604.88-271.35-604.88-604.89S1327.15,1220,1660.68,1220s604.89,271.35,604.89,604.88S1994.22,2429.78,1660.68,2429.78Zm0-1117.93c-282.89,0-513,230.15-513,513s230.15,513.05,513,513.05,513.05-230.15,513.05-513S1943.58,1311.85,1660.68,1311.85Z" transform="translate(0 0)"/><circle class="cls-6" cx="1660.69" cy="1824.89" r="216.56" transform="translate(-803.99 1708.78) rotate(-45)"/><path class="cls-1" d="M1660.68,2087.38c-144.73,0-262.48-117.75-262.48-262.49s117.75-262.48,262.48-262.48,262.49,117.75,262.49,262.48S1805.42,2087.38,1660.68,2087.38Zm0-433.13c-94.09,0-170.63,76.55-170.63,170.64s76.54,170.64,170.63,170.64,170.64-76.54,170.64-170.64-76.55-170.64-170.64-170.64Z" transform="translate(0 0)"/><rect class="cls-7" x="1654.56" y="1229.73" width="1221.52" height="32.26" transform="translate(-217.46 1966.73) rotate(-45)"/><path class="cls-8" d="M1838.15,1611.31c13.09-13.08,74.78,48.61,61.69,61.69L1671,1852.88c-8.45,6.65-19.4-4.3-12.76-12.76Z" transform="translate(0 0)"/><path class="cls-9" d="M2708.06,825.91l116.2,11.54L2664.74,997A246.59,246.59,0,0,1,2466,1068h0Z" transform="translate(0 0)"/><path class="cls-9" d="M2685.25,803.1,2673.7,686.89,2514.18,846.42a246.59,246.59,0,0,0-71,198.77h0Z" transform="translate(0 0)"/><g class="cls-10"><path class="cls-9" d="M1090.59,642.25a8.31,8.31,0,0,1-11.75,0h0c-6.3-6.31-13-12.44-19.83-18.22a8.3,8.3,0,0,1-1.1-11.58l.1-.13a8.31,8.31,0,0,1,11.71-1h0c7.22,6.08,14.24,12.54,20.88,19.18a8.3,8.3,0,0,1,.58,11.1C1091,641.82,1090.8,642,1090.59,642.25Zm-66.89-44c-7.58-4.79-15.43-9.3-23.35-13.41A8.35,8.35,0,0,1,1008,570c8.33,4.32,16.6,9.06,24.57,14.1a8.3,8.3,0,0,1,2.58,11.46h0a6.44,6.44,0,0,1-.57.8,8.32,8.32,0,0,1-10.88,1.83Zm-63.46-30.79c-8.43-3-17.09-5.62-25.75-7.86a8.31,8.31,0,1,1,4-16.13l.17,0c9.12,2.36,18.24,5.14,27.12,8.27a8.31,8.31,0,0,1-5.53,15.68Zm-68.76-15.83c-8.89-1-17.93-1.65-26.86-1.9a8.31,8.31,0,1,1,.46-16.62c9.41.26,18.93.94,28.28,2a8.31,8.31,0,0,1-1.88,16.52Zm-70.57-.11c-8.87,1-17.83,2.36-26.61,4.1a8.31,8.31,0,1,1-3.22-16.31c9.25-1.83,18.67-3.28,28-4.31a8.31,8.31,0,0,1,1.85,16.52h0ZM752.08,567c-8.45,2.92-16.87,6.25-25,9.88a8.32,8.32,0,0,1-7.12-15l.36-.16c8.6-3.82,17.48-7.32,26.37-10.39A8.31,8.31,0,0,1,752.08,567Zm-212,224.33a8.3,8.3,0,0,1-6-10.13h0c2.37-9.1,5.17-18.22,8.32-27.11a8.31,8.31,0,0,1,15.67,5.56c-3,8.44-5.65,17.1-7.9,25.74a8.3,8.3,0,0,1-10.16,5.93Zm148.38-194c-7.58,4.72-15.05,9.84-22.2,15.2a8.32,8.32,0,0,1-10-13.3c7.52-5.65,15.39-11,23.37-16a8.31,8.31,0,0,1,10.86,12.29,8.48,8.48,0,0,1-2,1.82ZM564.35,723.06a8.32,8.32,0,0,1-3.53-11.22c4.35-8.33,9.12-16.59,14.16-24.55a8.31,8.31,0,1,1,14.49,8.14,9.06,9.06,0,0,1-.49.77c-4.79,7.56-9.32,15.41-13.45,23.33a9.13,9.13,0,0,1-.92,1.4A8.32,8.32,0,0,1,564.35,723.06Zm68.84-81.91c-6.33,6.3-12.47,13-18.25,19.79a8.31,8.31,0,0,1-12.81-10.6l.12-.14c6.08-7.19,12.54-14.2,19.2-20.83a8.31,8.31,0,0,1,12.33,11.11c-.18.23-.38.45-.59.67Z" transform="translate(0 0)"/><path class="cls-9" d="M539.07,846.08a8.21,8.21,0,0,0,1.83-4.61c.32-4.28.73-8.62,1.22-12.9a8.31,8.31,0,1,0-16.52-1.89h0c-.52,4.5-1,9.06-1.28,13.56a8.31,8.31,0,0,0,14.75,5.84Z" transform="translate(0 0)"/></g><g class="cls-10"><path class="cls-9" d="M620.6,1086a8.29,8.29,0,0,0-.27-10.77c-2.86-3.19-5.7-6.5-8.44-9.82A8.32,8.32,0,0,0,599.06,1076h0c2.89,3.5,5.88,7,8.89,10.35a8.33,8.33,0,0,0,11.74.64A7.13,7.13,0,0,0,620.6,1086Z" transform="translate(0 0)"/><path class="cls-9" d="M1102.53,1086.77a8.31,8.31,0,1,1-12.39-11.09h0c5.83-6.51,11.48-13.37,16.85-20.47a8.31,8.31,0,0,1,13.26,10q-3.49,4.62-7.11,9.07C1109.71,1078.55,1106.14,1082.74,1102.53,1086.77Zm31.21-56.25a8.31,8.31,0,0,1-3.17-11.32h0c4.32-7.68,8.36-15.63,12-23.62a8.31,8.31,0,1,1,15.13,6.89c-3.84,8.42-8.09,16.79-12.64,24.87a7.83,7.83,0,0,1-.79,1.18A8.34,8.34,0,0,1,1133.74,1030.52Zm-63.67,87.85c-7,6-14.46,11.74-22,17.12a8.31,8.31,0,1,1-9.65-13.54c7.18-5.11,14.21-10.58,20.91-16.26a8.31,8.31,0,1,1,10.74,12.68Zm93.22-152.73a8.3,8.3,0,0,1-5.58-10.34h0c2.52-8.43,4.71-17.07,6.51-25.67a8.31,8.31,0,0,1,16.27,3.4c-1.9,9.06-4.2,18.16-6.86,27a8.34,8.34,0,0,1-10.34,5.62Zm-153.82,193.51c-8.19,4.28-16.68,8.27-25.23,11.86a8.31,8.31,0,1,1-6.44-15.33c8.13-3.41,16.19-7.2,24-11.26a8.31,8.31,0,0,1,7.7,14.73Zm-68.08,26.5c-8.95,2.4-18.1,4.44-27.21,6.08a8.31,8.31,0,0,1-2.94-16.36c8.65-1.56,17.35-3.5,25.86-5.77a8.31,8.31,0,0,1,4.74,15.93l-.45.12Zm-72.23,11c-9.27.39-18.65.39-27.89,0A8.31,8.31,0,0,1,842,1180c8.78.36,17.7.36,26.5,0a8.31,8.31,0,0,1,.7,16.61Zm-72.93-5c-9.12-1.64-18.28-3.7-27.22-6.11a8.31,8.31,0,0,1,3.16-16.32,9.18,9.18,0,0,1,1.17.32c8.48,2.29,17.18,4.24,25.85,5.8a8.32,8.32,0,0,1-3,16.36Zm-70.08-20.89c-8.52-3.61-17-7.63-25.19-12a8.31,8.31,0,0,1,7.75-14.71c7.79,4.11,15.84,7.92,23.93,11.35a8.32,8.32,0,0,1,4.4,10.9h0a8.38,8.38,0,0,1-10.89,4.52ZM662.43,1135q-8.32-6-16.33-12.43-2.86-2.33-5.67-4.7a8.23,8.23,0,0,1-1.12-11.57l.12-.14a8.32,8.32,0,0,1,11.71-1h0c1.78,1.5,3.58,3,5.39,4.47,5,4.07,10.25,8,15.52,11.82a8.31,8.31,0,0,1,1.93,11.59c-.1.14-.2.28-.31.41a8.3,8.3,0,0,1-11.25,1.61Z" transform="translate(0 0)"/><path class="cls-9" d="M1184.87,892.58a8.3,8.3,0,0,0,1.84-4.66c.31-4.49.53-9.07.65-13.62a8.31,8.31,0,0,0-16.62-.45c-.12,4.32-.33,8.67-.62,12.93a8.31,8.31,0,0,0,14.75,5.8Z" transform="translate(0 0)"/></g><path class="cls-9" d="M1091.37,785a3.89,3.89,0,0,0-3.31-3.06l-46.91-6a205.67,205.67,0,0,0-37.53-55.17L1015.23,675a3.9,3.9,0,0,0-1.64-4.2l-47.43-31.1a3.88,3.88,0,0,0-4.51.18L924.28,668.8a206.23,206.23,0,0,0-65.57-12.43l-24.19-40.62a3.89,3.89,0,0,0-4.13-1.82l-55.53,11.55a3.89,3.89,0,0,0-3.06,3.31l-6,46.91a206,206,0,0,0-55.18,37.54l-45.8-11.62a3.9,3.9,0,0,0-4.21,1.64l-31.09,47.43a3.89,3.89,0,0,0,.17,4.51l28.92,37.38a205.89,205.89,0,0,0-12.43,65.56l-40.63,24.2a3.89,3.89,0,0,0-1.81,4.13L615.3,942a3.87,3.87,0,0,0,3.31,3.07l46.9,6a205.93,205.93,0,0,0,37.54,55.17L691.44,1052a3.89,3.89,0,0,0,1.64,4.21l47.43,31.1a3.9,3.9,0,0,0,4.5-.18l37.38-28.91A205.93,205.93,0,0,0,848,1070.66l24.19,40.63a3.89,3.89,0,0,0,4.13,1.81l55.53-11.55a3.88,3.88,0,0,0,3.06-3.31l6-46.9A206,206,0,0,0,996,1013.8l45.81,11.61a3.89,3.89,0,0,0,4.2-1.63l31.1-47.44a3.86,3.86,0,0,0-.18-4.5L1048,934.46a205.9,205.9,0,0,0,12.43-65.57l40.62-24.19a3.88,3.88,0,0,0,1.82-4.13Z" transform="translate(0 0)"/><path class="cls-3" d="M891.91,905.5a57,57,0,1,1,5.73-6.1A57,57,0,0,1,891.91,905.5Zm-82.25-43.83a43.71,43.71,0,1,0,14.1-30.34,45.11,45.11,0,0,0-4.44,4.73A43.35,43.35,0,0,0,809.66,861.67Z" transform="translate(0 0)"/><path class="cls-3" d="M960.87,952.16a143.24,143.24,0,0,0,8.5-11.63h0c.83-1.27,1.65-2.56,2.44-3.86a140.07,140.07,0,0,0,10.14-20l.12-.28c.11-.27.22-.54.32-.81.21-.52.41-1,.62-1.57a3.32,3.32,0,0,0-1-3.78,3.52,3.52,0,0,0-.9-.52,3.34,3.34,0,0,0-4.3,1.91,133.63,133.63,0,0,1-197.88,63.75,135.23,135.23,0,0,1-11.1-8.11,133.54,133.54,0,1,1,204.5-161.81,3.33,3.33,0,0,0,6-2.9h0a139.72,139.72,0,0,0-37.8-47.68q-5.53-4.49-11.5-8.41c-64.65-42.38-151.73-24.25-194.1,40.37a140.23,140.23,0,0,0,28.72,185.59q5.58,4.51,11.65,8.51a140.21,140.21,0,0,0,185.6-28.74Z" transform="translate(0 0)"/><g class="cls-10"><path class="cls-9" d="M1440,559.22a5.12,5.12,0,0,0,.24-6.15c-2.48-3.59-5.09-7.15-7.78-10.58a5.13,5.13,0,1,0-8.09,6.32c2.56,3.28,5.06,6.67,7.42,10.1a5.11,5.11,0,0,0,7.1,1.34,5.17,5.17,0,0,0,1.11-1Z" transform="translate(0 0)"/><path class="cls-9" d="M1414.3,529.3a5.13,5.13,0,0,1-7.25,0h0a213.92,213.92,0,0,0-16-14.4q-1.76-1.42-3.56-2.82a5.13,5.13,0,0,1-.9-7.2h0a5.29,5.29,0,0,1,7.2-.91q1.89,1.47,3.73,2.95c5.82,4.73,11.48,9.81,16.8,15.1a5.15,5.15,0,0,1,.37,6.87A5,5,0,0,1,1414.3,529.3Zm-48.37-31.91a212.23,212.23,0,0,0-23.15-12,5.13,5.13,0,0,1,4.14-9.39,223.73,223.73,0,0,1,24.28,12.54,5.13,5.13,0,0,1,1.77,7,6.42,6.42,0,0,1-.42.6,5.14,5.14,0,0,1-6.62,1.2Zm-47.62-21a210.68,210.68,0,0,0-25.4-5.91,5.14,5.14,0,0,1,1.71-10.13,222.6,222.6,0,0,1,26.63,6.2,5.13,5.13,0,0,1,3.45,6.38h0a5.16,5.16,0,0,1-6.39,3.47ZM1267,467.77a209.84,209.84,0,0,0-26.06.48,5.13,5.13,0,1,1-.82-10.23h0a222.55,222.55,0,0,1,27.33-.51,5.13,5.13,0,1,1-.45,10.26Zm-51.87,4.15a212.49,212.49,0,0,0-25.17,6.8,5.13,5.13,0,1,1-3.28-9.73h0a224.74,224.74,0,0,1,26.38-7.13,5.14,5.14,0,0,1,2.5,10,3.29,3.29,0,0,1-.43.09Zm-49.3,16.62a212.45,212.45,0,0,0-22.73,12.72,5.13,5.13,0,1,1-5.56-8.63,218.93,218.93,0,0,1,23.84-13.34,5.13,5.13,0,0,1,6.21,7.86,5,5,0,0,1-1.78,1.39Zm-43.72,28.16a210.85,210.85,0,0,0-18.92,17.93,5.14,5.14,0,0,1-7.51-7,222.92,222.92,0,0,1,19.84-18.79,5.14,5.14,0,0,1,7.29,7.17,5.87,5.87,0,0,1-.72.69Zm-56.48,62a5.14,5.14,0,0,1-2-7l0,0a225,225,0,0,1,12.59-20.12c.69-1,1.39-2,2.09-2.94a5.14,5.14,0,0,1,8.3,6l-2,2.77a210.65,210.65,0,0,0-12,19.22,4.94,4.94,0,0,1-.51.75,5.13,5.13,0,0,1-6.49,1.37Z" transform="translate(0 0)"/></g><g class="cls-10"><path class="cls-9" d="M1428,821.09a222.75,222.75,0,0,1-18.42,19.58,5.13,5.13,0,0,1-7-7.47,209.48,209.48,0,0,0,17.56-18.68A5.14,5.14,0,0,1,1428,821Zm8.83-20.14a5.14,5.14,0,0,1-1.52-7.1,212.11,212.11,0,0,0,12.61-22.33,5.13,5.13,0,0,1,9.23,4.5,225.28,225.28,0,0,1-13.22,23.41,3.72,3.72,0,0,1-.33.45,5.13,5.13,0,0,1-6.81,1.12Zm-47.92,56.93a222.26,222.26,0,0,1-22.6,14.55,5.13,5.13,0,0,1-5-8.95,212.16,212.16,0,0,0,21.57-13.88,5.13,5.13,0,0,1,7,7.37,4.6,4.6,0,0,1-1,.91Zm72-103.53a5.13,5.13,0,0,1-3.18-6.52,211.41,211.41,0,0,0,6.85-24.72,5.13,5.13,0,0,1,10,2.14,219.63,219.63,0,0,1-7.18,25.92,5.14,5.14,0,0,1-6.52,3.18Zm-118.8,129.77a223.6,223.6,0,0,1-25.44,8.69,5.14,5.14,0,0,1-2.73-9.91,209.6,209.6,0,0,0,24.27-8.28,5.13,5.13,0,0,1,3.9,9.5Zm-51.74,14.25a222.31,222.31,0,0,1-26.78,2.35,5.13,5.13,0,1,1-.28-10.26h0a216.44,216.44,0,0,0,25.55-2.24,5.13,5.13,0,1,1,1.51,10.15Zm-53.66,1.46a220.7,220.7,0,0,1-26.57-4.15,5.13,5.13,0,0,1,1.52-10.15c.23,0,.45.09.67.15a212.67,212.67,0,0,0,25.34,4,5.13,5.13,0,0,1,4.63,5.59h0a5,5,0,0,1-1.12,2.75,5.12,5.12,0,0,1-4.5,1.81Z" transform="translate(0 0)"/><path class="cls-9" d="M1477.47,701.19a5.13,5.13,0,0,0,1.13-2.79c.38-4.37.63-8.78.75-13.1a5.14,5.14,0,0,0-10.26-.64c0,.12,0,.24,0,.36-.11,4.12-.35,8.32-.71,12.5a5.13,5.13,0,0,0,9.1,3.67Z" transform="translate(0 0)"/></g><path class="cls-9" d="M1415.54,625.58a2.6,2.6,0,0,0-2.22-2.05l-31.38-4a137.93,137.93,0,0,0-25.12-36.92l7.77-30.65a2.6,2.6,0,0,0-1.1-2.81l-31.74-20.81a2.6,2.6,0,0,0-3,.12l-25,19.34a138.15,138.15,0,0,0-43.88-8.31l-16.19-27.18a2.57,2.57,0,0,0-2.76-1.22l-37.16,7.73a2.59,2.59,0,0,0-2,2.21l-4,31.39a137.7,137.7,0,0,0-36.92,25.12l-30.66-7.77a2.61,2.61,0,0,0-2.81,1.09l-20.81,31.74a2.6,2.6,0,0,0,.12,3l19.35,25a137.77,137.77,0,0,0-8.32,43.87l-27.18,16.19a2.63,2.63,0,0,0-1.22,2.77L1097,730.6a2.59,2.59,0,0,0,2.22,2l31.38,4a137.93,137.93,0,0,0,25.12,36.92L1148,804.17a2.59,2.59,0,0,0,1,2.83l31.74,20.81a2.6,2.6,0,0,0,3-.11l25-19.35a137.87,137.87,0,0,0,43.88,8.31l16.19,27.19a2.59,2.59,0,0,0,2.76,1.21l37.16-7.73a2.59,2.59,0,0,0,2-2.21l4-31.39a137.93,137.93,0,0,0,36.92-25.12l30.65,7.77a2.59,2.59,0,0,0,2.82-1.09l20.88-31.7a2.62,2.62,0,0,0-.12-3l-19.35-25a137.77,137.77,0,0,0,8.32-43.87L1422,665.53a2.61,2.61,0,0,0,1.22-2.76Z" transform="translate(0 0)"/><path class="cls-3" d="M1282.53,706.68a38.54,38.54,0,1,1,4-4.19A39.56,39.56,0,0,1,1282.53,706.68Zm-47.31-9.26a28.57,28.57,0,0,0,40.36,1.71h0a28.57,28.57,0,0,0-38.65-42.08,29.78,29.78,0,0,0-2.88,3.06A28.61,28.61,0,0,0,1235.22,697.42Z" transform="translate(0 0)"/><path class="cls-3" d="M1330.53,739.16a97.57,97.57,0,0,0,14.89-25.43l.32-.82a5.16,5.16,0,0,0-1.55-5.84,5,5,0,0,0-1.4-.8,5.14,5.14,0,0,0-6.63,2.94,86.11,86.11,0,0,1-8.41,16.37h0l-.57.85a85.76,85.76,0,0,1-31.47,28.31,87,87,0,0,1-21.89,7.92h-.19l-.57.12a85.88,85.88,0,0,1-65-12.34q-3.75-2.46-7.19-5.24a86.45,86.45,0,0,1,102-139.34A83.49,83.49,0,0,1,1310,611a86.08,86.08,0,0,1,23.31,29.4,5.14,5.14,0,0,0,9.25-4.48,96.72,96.72,0,1,0-148.11,117.2c2.56,2.07,5.24,4,8,5.87A96.86,96.86,0,0,0,1330.53,739.16Z" transform="translate(0 0)"/><path class="cls-11" d="M813.57,3164.23s-5.78,31-8.76,61.71a21.17,21.17,0,0,0,19.1,23.07l.9.07c40.92,2.09,128.44,6.24,159.87,5.14a6.9,6.9,0,0,0,6.16-9.38,15.41,15.41,0,0,0-7.82-8.39L839,3168.6Z" transform="translate(0 0)"/><path class="cls-12" d="M809.25,3145.94l4.06,37.19s25.22,12,42.65-1.08l-10.1-41.49Z" transform="translate(0 0)"/><path class="cls-13" d="M819.23,2447.72c-2,9.68-14.84,483.91,33.84,697a7.22,7.22,0,0,1-4.32,8.35,125.33,125.33,0,0,1-41.37,8,12.44,12.44,0,0,1-12.24-9c-14-49.46-81.11-297.2-87.92-533.32-7.6-263.85.09-9,.09-9l7.49-163Z" transform="translate(0 0)"/><path class="cls-14" d="M647.05,3178.84s-8.88,15.6-17.73,57.17a12.92,12.92,0,0,0,9.89,15.36,11.9,11.9,0,0,0,1.33.22c13.51,1.46,34.3,3.37,51,3.41a12.88,12.88,0,0,0,13-12.81,13.88,13.88,0,0,0-.07-1.44c-1.71-15.22-7.22-40.22-24.8-59.83Z" transform="translate(0 0)"/><path class="cls-15" d="M639.84,3131l9.76,56.26s10.11,7.67,30.3,2.38l-4.34-60.48Z" transform="translate(0 0)"/><path class="cls-16" d="M618.42,2460.36c-43.86,249.85,3.09,618.6,19.42,690.84a11.26,11.26,0,0,0,9,8.62c7.58,1.33,20.08,2.48,32.44-1a10.31,10.31,0,0,0,7.5-9.41c2.84-58.25,2.14-416,42.13-557a32.1,32.1,0,0,1,12.55-17.6l75.5-52.6,6.57-86.12Z" transform="translate(0 0)"/><path class="cls-17" d="M887.16,1988.71c-124.24-3.24-261.69,30.13-261.69,30.13-39.1,215.78-10.91,465.36-10.91,465.36,96,26.15,204.87-13.47,204.87-13.47,16.85-90.18,93.88-343.71,93.88-343.71,60.79-7,111-24,152.38-46.76-31.07-36.72-45.44-83.2-51.61-110.66C970,1982.84,925.48,1989.71,887.16,1988.71Z" transform="translate(0 0)"/><path class="cls-18" d="M1256,1809.17c-12.07-14.86-27.59-8-27.59-8-19,77.07-115.5,138.79-214.3,168.46,6.17,27.46,20.54,73.94,51.61,110.66C1230.05,1989.9,1256,1809.17,1256,1809.17Z" transform="translate(0 0)"/><path class="cls-19" d="M1253,1812.89c1.24,4.08-13.61,10.12-22.17-6.57-.22-8-4.74-42.11.08-48.55,25.66-34.29,75.18-77.11,75.18-77.11,8.23,8.27,1.31,16.25,1.31,16.25l-24.06,24.59c4.9,9,10.9,16.71,13.65,27.63a33.35,33.35,0,0,1-3.57,24.54c-4.25,7.49-10.05,17.23-15.52,24.84C1267.53,1812.92,1253,1812.89,1253,1812.89Z" transform="translate(0 0)"/><path class="cls-20" d="M1272.74,1737.5l-21.89,18.2-7,18.26,19.15,21.66s6.86-36.3,11.77-44.12S1277.22,1739.84,1272.74,1737.5Z" transform="translate(0 0)"/><path class="cls-21" d="M672,2139.62l-46.52-120.78s-116.82,77.76-136.86,177.57c21.91,1.82,61.77,7.91,100.64,28C598.29,2177.28,672,2139.62,672,2139.62Z" transform="translate(0 0)"/><path class="cls-22" d="M772.34,2253.81s-131,72.41-174.39,9.1c-9-13.15-11.06-26.14-8.7-38.5-38.87-20.09-78.73-26.18-100.64-28-6,30.09-3.31,62.18,14.1,94.75,75.68,141.63,286.57-5,286.57-5Z" transform="translate(0 0)"/><path class="cls-23" d="M762.25,1886.62l-40.63,114a4.13,4.13,0,0,0,1.83,5c10.73,6.06,49.39,23.66,96.47-5.57a19.41,19.41,0,0,0,9.07-13.77l13.74-98.84Z" transform="translate(0 0)"/><path class="cls-24" d="M849.3,1781.56s42.64,82.14,36.75,115.1-59.66,30.08-106.4,2.82l-32-88.57Z" transform="translate(0 0)"/><path class="cls-25" d="M782.14,1856.16a3.39,3.39,0,0,0,1.52-4.92c-3.43-5.35-9.84-16.25-11.83-25.76,0,0-7.76-5.07,20-11.43s69.1-16.25,78-39.72c8.67-22.88-13-80.85-48.88-35.17a3.37,3.37,0,0,1-4.73.61,3.2,3.2,0,0,1-.61-.61c-5.74-7.62-20.87-23.47-42.17-14.15-19.93,8.72-22.31,23.24-22.1,30.57a3.35,3.35,0,0,1-3.24,3.45,3.21,3.21,0,0,1-.76-.06c-10-2-34.09-3.88-45.57,20.72-9.45,20.26-3.54,31.84,1.89,37.52a3.35,3.35,0,0,1-.09,4.75,3.29,3.29,0,0,1-1.4.81c-6.62,2-15.19,7.47-14.48,22.93,1,21.38,24.87,19.72,31.68,18.81a3.39,3.39,0,0,1,3,1.09c5.77,6.51,31.78,34.16,60.18,37.73a3.4,3.4,0,0,0,3.76-3,3.25,3.25,0,0,0-.15-1.45l-12-35.89a3.37,3.37,0,0,1,1.87-4.18Z" transform="translate(0 0)"/><path class="cls-26" d="M787,1861.28s-30.71-21.5-33.14-3.66,27.59,26.14,42.56,19.62Z" transform="translate(0 0)"/><path class="cls-27" d="M745.56,2368.24,816.94,2119a7.26,7.26,0,0,1,6.14-5.23c12.94-1.51,50.41-5.75,93.67-9.41,52.11-4.4,112.63-8,148.79-4.94a7.28,7.28,0,0,1,6.73,7.81,7,7,0,0,1-.73,2.69C1051,2151.52,966.39,2320.76,924,2376.2a7.32,7.32,0,0,1-5.89,2.89l-165.59-1.54a7.31,7.31,0,0,1-7-9.31Z" transform="translate(0 0)"/><path class="cls-28" d="M762.81,2308s-9.94-40.88-5.93-55.38,11.78-33.16,37.68-29,56.45,15,56.45,15-1.54,18.89-21.23,12.8l12.21,9.44s-1.75,15.13-18.37,7L835,2280.5s-7.14,12.42-19.37,4.45S797.5,2312.94,762.81,2308Z" transform="translate(0 0)"/><path class="cls-9" d="M912,2178.76a21,21,0,1,0,21-21,21,21,0,0,0-21,21Z" transform="translate(0 0)"/><path class="cls-3" d="M825,2192.57l14.53-49.29a16.9,16.9,0,0,1,12.7-11.87c45.55-9.5,170.21-11.51,171.46-11.53l-.08-5.57c-5.14.08-126.45,2-172.51,11.65a22.5,22.5,0,0,0-16.91,15.74L819.67,2191Z" transform="translate(0 0)"/><path class="cls-29" d="M2680,1821.89a4.72,4.72,0,0,1,8.73.93c4.23,15.24,14.48,41.82,36,51.26,1.08.48,2.11,1,3.1,1.44a10.92,10.92,0,0,0-1.35-9.89c-6.68-10.21,5.39-24.16,5.39-24.16s.79,12.29,10.13,20c8,6.67,11.91,21.49,6.41,33.66-11.63,45.19-29,104.95,38.81,148.62s163.43-82.41,163.43-82.41l-47.44,150.37s-73.21,54-158.37-21.94-28.71-186.52-28.71-186.52S2651.12,1877.07,2680,1821.89Z" transform="translate(0 0)"/><path class="cls-30" d="M2962.47,1740.43s-19.66-88.19,81.36-64.85c0,0,49-8,51.53,38.27,0,0,31.61,20.83,8.46,60.89,0,0,93.94-36.29,134.87,46s3.31,127.64-36.13,139.44c0,0,32,16,16.82,52.27s-91.72,61.76-137,17.71c0,0-128.75,17-126.17-73.93,0,0-59.89-38.67,3-113.82S2962.47,1740.43,2962.47,1740.43Z" transform="translate(0 0)"/><path class="cls-31" d="M2956.92,1944.84c20.3-6.08,79.41-17.32,135.63,34.56a34.83,34.83,0,0,1,10,34.7c-15.1,55.59-54.94,219.83-20,290.9,0,0-61.56,67.86-128.72,13.16,0,0-30.13-131.33-69.6-189-27.25-39.81,43.45-149.47,61.34-176A21,21,0,0,1,2956.92,1944.84Z" transform="translate(0 0)"/><path class="cls-32" d="M3013,1834.4s30,84.92,32.28,122.38c0,0-33.18,15.09-64.44-10.38,0,0-3.28-84.82-8-100Z" transform="translate(0 0)"/><path class="cls-33" d="M2971.27,1718.62s-78.52,109.88-31.58,141.8,102.83-46.17,102.83-46.17,18.22-60.15-.83-80.55S2971.27,1718.62,2971.27,1718.62Z" transform="translate(0 0)"/><path class="cls-34" d="M3007.61,1692.35s-36.07,8.55-41.12,24.87,51.15,31.46,66.9,32.2l12.69,65.86s37.52-62,22.66-97.74S3007.61,1692.35,3007.61,1692.35Z" transform="translate(0 0)"/><path class="cls-35" d="M3027.3,1806.16s30.56-35.39,42.72-12.32-27.51,40.4-41.24,29.07Z" transform="translate(0 0)"/><path class="cls-36" d="M2875.45,2593.9c.23,6-10.24,53.25-15.94,78.48a41.54,41.54,0,0,0,4.48,29.8l197.29,332.06a45.26,45.26,0,0,1,5.18,12.92c3.62,15.58,11.11,53.77,7.2,88.51l-10.21,21.2,44.14-10,9.61-118.54-12.5-7.62a59.39,59.39,0,0,1-24-28.12c-17.84-43.33-62.14-153.64-73.56-207.4-13-61.1-80.83-110.72-80.83-110.72l11.92-28.18Z" transform="translate(0 0)"/><path class="cls-37" d="M3156.65,3106.06s-23.84-37.79-26.64-52.51-10.61-40.68-25.31-32.86c0,0-6.92,71.46-4.54,99.38s-31.56,27-31.56,27-9.36,1.32-16.21,8.17c-4.73,4.73-1.35,12.94,5.33,13.37A191.1,191.1,0,0,0,3105,3166a14.49,14.49,0,0,0,11.67-13.34l4.89-82.25,30.07,38Z" transform="translate(0 0)"/><path class="cls-38" d="M2993.31,2646.79s7,297,7.9,339.21-6.66,135.67-48.95,163.62l18.4,13.62s23-19.55,45.47-57.16c25.23-42.26,32.87-50,32.87-50l-8.38-17.15a37.76,37.76,0,0,1-3.06-24.19c9.13-44.23,39.62-191.35,47.93-223,9.82-37.4,10.52-87.34-23.63-129.14S2993.31,2646.79,2993.31,2646.79Z" transform="translate(0 0)"/><path class="cls-39" d="M3032.36,3176.63a2.6,2.6,0,0,0,2.61-2.23c1.41-9.9,7.27-49.6,12.06-59.88,5.49-11.77,23.43-61.32,0-65.53,0,0-58.27,85.14-69.46,96.62s-25.3,4-25.3,4a42.06,42.06,0,0,0-19.12,13.72,7.72,7.72,0,0,0,6.08,12.4l39.25.37a27.6,27.6,0,0,0,25.89-17.4c6.91-17.25,18.78-42.57,32.61-53.79l-7.19,68.82a2.64,2.64,0,0,0,2.36,2.88h.21Z" transform="translate(0 0)"/><path class="cls-40" d="M2944.56,2286.14s8.84,28.19-4.74,74.62l-84.3,294.36a9.11,9.11,0,0,0,5.7,11.09c25.22,9.05,108.1,34.63,221.25,26.83a12.85,12.85,0,0,0,11.71-10c7.46-33.56,32.89-148.05,38.13-171.58,20-89.64,42.24-186.31-55.79-244.77C3031.35,2286,2989.21,2297.45,2944.56,2286.14Z" transform="translate(0 0)"/><path class="cls-41" d="M3100.59,1990.5s95.91,79.7,119.71,188.61-140.15,120.49-140.15,120.49-22.25-24.85-48.68-16-2-43.37,28.87-43.24,16.6,24.59,60.33,4.78c42.6-19.3,68.94-79-39.76-169.45a49.28,49.28,0,0,1-14.36-19.55C3045.44,2003,3062.18,1968.15,3100.59,1990.5Z" transform="translate(0 0)"/><rect class="cls-42" x="2466.23" y="2804.24" width="34.21" height="369.96"/><path class="cls-42" d="M2633.15,3181.33H2333.53v-19.79a2.48,2.48,0,0,1,2.46-2.48h294.69a2.48,2.48,0,0,1,2.47,2.47h0Z" transform="translate(0 0)"/><rect class="cls-42" x="2289.45" y="2716.15" width="400.37" height="113.55" rx="39.1"/><path class="cls-43" d="M2180.08,3061.85s-110.59,47.63-104.25,97.49c0,0,114.32-21.93,134.78-54.61s9.18-51.6,9.18-51.6Z" transform="translate(0 0)"/><path class="cls-44" d="M2207.17,3007.4l5.62,48.54a16.06,16.06,0,0,1-10.16,17,42.14,42.14,0,0,1-14,2.14,18.71,18.71,0,0,1-18.17-13.63l-10.88-39.26Z" transform="translate(0 0)"/><path class="cls-45" d="M2448.77,2635.19s-203.41-9.42-304.63,49.61,5.13,342.34,5.13,342.34,26.44,5.68,64.51-14.67c0,0-54.33-207.39,40-243.47,106.1-40.56,215.85-30.7,215.85-30.7l-20.34-96.71Z" transform="translate(0 0)"/><path class="cls-46" d="M2098.05,3137.46c23.13-5.07,91.72-33.49,102.14-33.11s25.18,16,25.18,16,2.54,8.53-4.91,20.78c-17.67,13.79-55.74,39.09-100,41.86-32.55,2-52.14-10.92-63.35-23.48C2066.91,3150,2082.65,3140.83,2098.05,3137.46Z" transform="translate(0 0)"/><path class="cls-47" d="M2120.45,3183c44.27-2.77,82.34-28.07,100-41.86-5,8.28-14.63,18.25-32.66,28.45-44.73,25.27-118.66,21.58-133.32,15.89-11.74-4.55-8.11-15.52,2.62-26C2068.31,3172.06,2087.9,3185,2120.45,3183Z" transform="translate(0 0)"/><path class="cls-48" d="M2249.65,3094.94c-1.51,5.72-17.71,22.93-27.08,32.52a18.46,18.46,0,0,1-17.14,5.16,47.56,47.56,0,0,1-12.26-4.31,12,12,0,0,1-4.63-16.27l23.69-43.08Z" transform="translate(0 0)"/><path class="cls-49" d="M2650.37,2618.13s17.75,126-33.59,151.71-163.94,42.6-202.72,107.93-108.45,193.57-171.84,230.41c0,0-36.2-11.77-46.78-29.58,0,0,75.24-197.8,106.63-245.87,27.19-41.64,66.94-101.62,123.41-127.56,16.17-7.43,17.43-24.58,14.59-42.14l-5.18-32Z" transform="translate(0 0)"/><path class="cls-50" d="M2174.55,2475.33c72,20.55,104.19-182,103.9-186.94l110.35,129s-65.75,115.7-165,128c-25.12,3.12-46.49-1.23-64.41-9.44A103.18,103.18,0,0,0,2174.55,2475.33Z" transform="translate(0 0)"/><path class="cls-51" d="M2041.26,2409c31.37-12.89,58,12.84,58,12.84,31.08,31.81,55.74,47.88,75.31,53.46a103.17,103.17,0,0,1-15.2,60.66c-38.78-17.76-61.39-53.68-70.7-71.6a13.45,13.45,0,0,0-17.76-6c-6.65,3.21-13.5,8.12-13.93,14.78-.85,13.14-16.48,13.91-16.57,9.06s12.11-30.8,12.11-30.8-36,23.12-50.08,32-26-5.75-26-5.75S2009.89,2421.92,2041.26,2409Z" transform="translate(0 0)"/><path class="cls-52" d="M2622.64,2205s-96.72-66-330.32,53.35c0,0-24.06,30.5-12.79,64.87s150,220.44,155.36,307.79c0,0,94.81,55.81,217.89.48C2652.78,2631.53,2694.05,2400.89,2622.64,2205Z" transform="translate(0 0)"/><path class="cls-53" d="M2421.23,2120.67l38.22,74.9a21.3,21.3,0,0,1-2.2,23c-10.53,13.18-32.5,30.91-70,19.48a32.8,32.8,0,0,1-22.38-23.82l-19.81-83.6Z" transform="translate(0 0)"/><path class="cls-54" d="M2694.27,2466.58c6.54-45.53-113.77-133.78-113.77-133.78l42.14-127.8s229.58,163.83,181.3,297.63c-6.92,19.18-17.25,33.15-29.83,43.06C2749.79,2495.87,2716.82,2475.15,2694.27,2466.58Z" transform="translate(0 0)"/><path class="cls-55" d="M2526.42,2479.21s136.09,38,164.33-3.41a21.66,21.66,0,0,0,3.52-9.22c22.55,8.57,55.52,29.29,79.84,79.15-64.62,50.83-189.21-6.15-223.06-23.24a24,24,0,0,0-17.93-1.5c-12,3.76-32.9,9.6-44.53,9-17-.94-35.26,60.52-64.2,45C2424.39,2574.91,2437.54,2469.91,2526.42,2479.21Z" transform="translate(0 0)"/><path class="cls-56" d="M2372.24,1998.27c-1.22,1-51.63,89.11-77.3,134a26.41,26.41,0,0,0,9.82,36,27.51,27.51,0,0,0,2.72,1.35l11.12,4.76c15.19,6.52,47.86,12,60.72,1.58l81.06-85.55S2399.5,1974.67,2372.24,1998.27Z" transform="translate(0 0)"/><path class="cls-57" d="M2483.21,2067.08c9.94-5.58,21.89-16.89,12.59-36.89-9.46-20.33-28.15-22.1-40.19-20.8a10.08,10.08,0,0,1-10.69-7.26c-.8-2.67-2.78-5-7.05-5.7a9.91,9.91,0,0,1-8-11.49c.06-.31.13-.62.21-.92,2.88-10.81,2.39-25.49-15-36-30.85-18.68-59.69,8.45-67.72,32S2373.9,2022,2396,2025.7c16.79,2.85,25,22.22,28,31.34a10,10,0,0,1-1.18,8.58l-24.64,37.44c6.77,8.53,12.78,17.54,18.7,26.65,2.22-2.38,4.16-4.37,5.67-5.76,10.7-9.81,29.74-4.75,37.58-2a9.9,9.9,0,0,0,7.78-.57c8.53-4.41,25.76-16.8,11.64-40.24a10.08,10.08,0,0,1,3.36-13.85Z" transform="translate(0 0)"/><path class="cls-58" d="M2407.86,2145.74s15.76-40.49,33.66-38.23,31.31,20.75,8.2,39.94C2421,2171.33,2407.86,2145.74,2407.86,2145.74Z" transform="translate(0 0)"/><path class="cls-59" d="M2352.64,2565.87h-.73l-317.95-.34a14.24,14.24,0,0,1,0-28.47l318,.35a14.23,14.23,0,0,1,.7,28.45Z" transform="translate(0 0)"/><path class="cls-60" d="M1748.14,2277.19h264.79a50.46,50.46,0,0,1,45.64,28.94L2181,2565.7H1851.92a30.65,30.65,0,0,1-28.52-19.4l-94.93-240.19a21.15,21.15,0,0,1,19.67-28.92Z" transform="translate(0 0)"/><path class="cls-9" d="M1934.68,2410.28c5.74,17.82,1.5,35.14-9.46,38.67s-24.51-8.06-30.25-25.89-1.5-35.14,9.47-38.67S1929,2392.45,1934.68,2410.28Z" transform="translate(0 0)"/><path class="cls-9" d="M1791.06,3247.81a13.63,13.63,0,0,1-5.27-1.06,12.77,12.77,0,0,1-7.18-16.57l.18-.43L2059,2599.11a13.54,13.54,0,0,1,17.56-6.77,12.78,12.78,0,0,1,7.17,16.59c-.05.14-.11.27-.17.41L1803.34,3240A13.41,13.41,0,0,1,1791.06,3247.81Z" transform="translate(0 0)"/><path class="cls-9" d="M2106.74,3247.81a13.37,13.37,0,0,1-12.28-7.83l-280.22-630.65a12.8,12.8,0,0,1,6.61-16.84l.39-.16a13.53,13.53,0,0,1,17.55,6.77L2119,3229.76a12.8,12.8,0,0,1-6.61,16.84l-.39.16A13.57,13.57,0,0,1,2106.74,3247.81Z" transform="translate(0 0)"/><path class="cls-9" d="M2658.45,3247.81a13.68,13.68,0,0,1-5.28-1.06,12.78,12.78,0,0,1-7.17-16.59c.05-.14.11-.27.17-.41l280.21-630.65a13.54,13.54,0,0,1,17.56-6.77,12.77,12.77,0,0,1,7.18,16.57l-.18.43L2670.73,3240A13.41,13.41,0,0,1,2658.45,3247.81Z" transform="translate(0 0)"/><path class="cls-9" d="M2974.12,3247.81a13.37,13.37,0,0,1-12.28-7.83l-280.22-630.65a12.8,12.8,0,0,1,6.61-16.84l.39-.16a13.53,13.53,0,0,1,17.55,6.77l280.22,630.65a12.8,12.8,0,0,1-6.61,16.84l-.39.16A13.63,13.63,0,0,1,2974.12,3247.81Z" transform="translate(0 0)"/><path class="cls-9" d="M3007,2579.64a15.32,15.32,0,0,0-2.66-11.66,12.11,12.11,0,0,0-9.72-5.14H1719.84a14.21,14.21,0,0,0-12.22,7.5,17.88,17.88,0,0,0-.95,15.56l13.81,33.47c3.17,7.67,10,12.58,17.56,12.58H2985.86c7,0,13-5.57,14.38-13.29Z" transform="translate(0 0)"/></g></svg>